<?xml version="1.0" encoding="utf-8"?>
<!-- Generator: Adobe Illustrator 24.0.1, SVG Export Plug-In . SVG Version: 6.00 Build 0)  -->
<svg version="1.1" xmlns="http://www.w3.org/2000/svg" xmlns:xlink="http://www.w3.org/1999/xlink" x="0px" y="0px"
	 viewBox="0 0 493 583.3" style="enable-background:new 0 0 493 583.3;" xml:space="preserve">
<style type="text/css">
	.st0{fill:#FBFBFC;}
	.st1{fill:#FCFCFD;}
	.st2{fill:#F9FAFB;}
	.st3{fill:#D3D3D3;}
	.st4{fill:#7B5064;}
	.st5{fill:#B6EEF7;}
	.st6{fill:#EFF1F4;}
	.st7{fill:#1E5764;}
	.st8{fill:#010104;}
	.st9{fill:#050537;}
	.st10{fill:#C6FBFE;}
	.st11{fill:#B1F4F9;}
	.st12{fill:#85ECF9;}
	.st13{fill:#47BACC;}
	.st14{fill:#A1F5FB;}
	.st15{fill:#318A99;}
	.st16{fill:#3CA3B3;}
	.st17{fill:#6ADCED;}
	.st18{fill:#153A42;}
	.st19{fill:#52CBDE;}
	.st20{fill:#2A7583;}
	.st21{fill:#9FC6CE;}
	.st22{fill:#DBFBFD;}
	.st23{fill:#CCFAFE;}
	.st24{fill:#ABDEE6;}
	.st25{fill:#C0F6FD;}
	.st26{fill:#A8D9E0;}
	.st27{fill:#AAAABB;}
	.st28{fill:#0F1040;}
	.st29{fill:#FFFFFF;}
</style>
<g id="Layer_1">
	<rect id="background" x="1.4" y="-5" width="492.6" height="586.3"/>
	<title>thinkbots_logo_only_blue_back</title>
	<g id="thinkbots">
		<path class="st0" d="M214.1,328.9h8.4v55h-9.9l-7-31l-0.4,0.1c0.2,5.1,0.4,10.3,0.6,15.4s0,10.3,0,15.5h-8.4v-55
			c0.3,0,0.5-0.1,0.7-0.1h9.2c2.4,10.4,4.8,20.8,7.2,31.2h0.3c0.1-3.4-0.3-6.8-0.4-10.2s-0.2-6.9-0.3-10.3S214.1,332.5,214.1,328.9z
			"/>
		<path class="st1" d="M279,354.6c1.8,1.5,3.2,3.4,4,5.6c0.9,2.6,1.2,5.2,1.1,7.9c0,4.1-1.2,8-3.3,11.5c-1.5,2.2-3.8,3.7-6.5,4.1
			c-1.1,0.2-2.2,0.3-3.4,0.3c-4,0-8,0-11.9,0c-0.3,0-0.5,0-0.8-0.1v-55c0.8,0,1.5-0.1,2.3-0.1c4.1,0.1,8.3,0.1,12.4,0.2
			c4.8,0.1,7.9,3.1,9.2,7.5c1.4,4.2,1.3,8.8-0.4,13C281,351.2,280,352.9,279,354.6z M267.9,374.1c0.9,0,1.8-0.1,2.7-0.3
			c1.5-0.3,2.7-1.4,3.2-2.9c0.8-2.2,1-4.7,0.4-7c-0.3-2-1.8-3.5-3.8-3.9c-0.8-0.1-1.7-0.1-2.6-0.2L267.9,374.1L267.9,374.1z
			 M267.9,338.1v12.2c2.6,0.5,5.1-1.1,5.6-3.7c0-0.2,0.1-0.5,0.1-0.7c0.2-1.3,0.2-2.7,0-4C273.1,339,271.1,337.6,267.9,338.1
			L267.9,338.1z"/>
		<path class="st0" d="M146.4,328.8h9.4c0.1,3.5,0.1,7,0.1,10.4v10.4h7.5v-20.7h9.3v55h-9.2v-22.8H156v22.8h-9.6V328.8z"/>
		<path class="st1" d="M288.6,356.5c0.2-4.7,0.3-9.2,0.5-13.6c0.1-3.1,0.8-6.2,2.2-9c1.5-2.9,4.1-5.1,7.2-5.9
			c2.8-0.7,5.7-0.6,8.4,0.3c2.8,0.8,4.7,2.9,6.1,5.4c1.6,3,2.4,6.4,2.5,9.8c0.5,8.5,0.5,17.1,0,25.6c-0.1,2.7-0.6,5.4-1.5,8
			c-2,5.1-5.8,8.2-11.4,8.1c-1,0-1.9-0.1-2.9-0.2c-4.6-0.7-7.4-3.6-9.1-7.7c-0.9-2.4-1.5-5-1.5-7.5
			C288.9,365.3,288.8,360.8,288.6,356.5z M306.4,356.2c-0.1-4.3-0.3-8.7-0.5-13c-0.1-1.1-0.3-2.1-0.6-3.1c-0.3-1.2-1.4-2-2.6-2
			c-1.8-0.1-3,0.6-3.4,2.3c-0.4,2.2-0.7,4.3-0.8,6.5c-0.1,6-0.1,11.9,0,17.9c0,1.9,0.2,3.8,0.3,5.6c0.1,0.9,0.3,1.7,0.6,2.5
			c0.5,1.6,2.3,2.4,3.8,1.8h0.1c1.1-0.5,1.9-1.5,2.1-2.7c0.2-0.8,0.3-1.7,0.4-2.6C306.1,365,306.2,360.6,306.4,356.2L306.4,356.2z"
			/>
		<path class="st1" d="M238.6,383.9h-9.4v-55h9.5v21.3h0.4c2.2-7.1,4.4-14.3,6.7-21.4h9.5c0,0.3-0.1,0.6-0.1,0.9
			c-1.9,5.2-3.8,10.4-5.7,15.6c-0.8,2.2-1.6,4.4-2.4,6.6c-0.3,0.7-0.3,1.5,0,2.2c2.8,9.6,5.6,19.2,8.4,28.7c0.1,0.3,0.1,0.6,0.2,1
			h-9.9c-1.6-6.5-3.2-12.9-5-19.7c-1.1,2.6-2.2,4.8-2.1,7.5c0.2,3.6,0,7.3,0,11C238.7,383,238.6,383.5,238.6,383.9z"/>
		<path class="st1" d="M370.9,345h-8.5c0-0.5,0-1.1-0.1-1.6c-0.2-1.4-0.4-2.9-0.8-4.3c-0.3-1.2-1.3-2-2.5-2
			c-1.2,0.1-2.3,0.9-2.5,2.1c-0.7,1.8-0.5,3.9,0.5,5.6c0.9,1.3,1.8,2.5,2.9,3.6c1.6,1.6,3.3,3.1,5,4.5c4.3,3.5,6.1,8.2,6.3,13.6
			c0.2,3.5-0.2,7.1-1.2,10.5c-0.8,2.7-2.5,5-4.9,6.6c-1.3,0.8-2.7,1.3-4.2,1.5c-1.6,0.2-3.2,0.1-4.8-0.1c-3.1-0.4-5.3-2.3-7-4.9
			c-1.2-2-1.9-4.3-2.1-6.7c-0.4-2.7-0.5-5.4-0.2-8.1h8.6c0,0.5,0.1,1,0.1,1.4c0.1,1.6,0.1,3.2,0.4,4.8c0.2,0.9,0.5,1.8,1,2.5
			c0.7,1.1,2.2,1.5,3.3,0.8c0.3-0.2,0.5-0.4,0.7-0.7c1.7-2.4,1.6-4.9,0.5-7.5c-0.7-1.5-1.6-2.8-2.9-3.9c-1.8-1.6-3.4-3.3-5.2-4.8
			c-4.9-4.2-6.3-9.6-6.2-15.8c0-2.9,0.6-5.8,1.8-8.5c2.4-5.2,7.4-6.9,12.1-6s7.4,3.6,8.8,8C370.9,338.7,371.2,341.8,370.9,345z"/>
		<path class="st0" d="M134.7,383.9h-9.6v-44.4h-7.5v-10.6h24.9v10.6h-7.8V383.9z"/>
		<path class="st0" d="M326.6,339.5h-7.5v-10.6H344c0.3,3.5,0.4,7,0.1,10.6h-7.8V384h-9.6L326.6,339.5z"/>
		<g>
			<path id="line" class="st2" d="M187.6,365.8h-4.8c-0.1-0.3-0.2-0.6-0.2-0.9c-0.8-7-1.7-14.1-2.2-21.2c-0.3-4.8-0.1-9.7,0-14.5
				c0,0,0-0.1,0.1-0.3h9.2C190.5,341.3,188.7,353.5,187.6,365.8z"/>
			<path id="dot" class="st0" d="M189.7,383.9h-9.1v-12.5h9C189.9,372.6,190,380.5,189.7,383.9z"/>
		</g>
	</g>
	<g id="des">
		<path class="st3" d="M131.2,414.9v-1h229.1c0.3,0.6,0.2,1-0.5,1c-0.4,0-0.8,0-1.1,0c-3.8-0.1-7.6-0.2-11.4-0.2
			c-2.4,0-4.8,0.2-7.2,0.2c-13.7,0-27.4,0-41.1,0H131.2L131.2,414.9z"/>
		<path class="st4" d="M360.4,394.5c-0.3,0.2-0.6,0.3-1,0.4c-3.6,0-7.2,0-10.8,0c-1.9,0-3.8,0.1-5.6,0.2c-0.8,0-1.6-0.1-2.4-0.1
			c-14.8,0-29.7,0-44.5,0c-12.9,0-25.9,0-38.8,0h-44.4c-26.6,0-53.2,0-79.8,0c-0.7,0-1.3-0.1-2-0.3h39.2h82.8h57.5h19.2
			c6.5,0,13.1,0,19.7,0c3.5,0,7.1,0,10.6-0.1h0.1L360.4,394.5z"/>
		<path class="st5" d="M360.4,394.5h-0.1h-0.1c-0.7-0.1-1.3-0.2-2-0.2H158.7h-27.6V394h1h71.6c2.2,0,4.5,0,6.8,0h0.3
			c0.6,0,1.2,0,1.8,0h127.8h20V394.5z"/>
		<path class="st6" d="M131.1,394.2h27.6h199.4c0.7,0,1.3,0.1,2,0.2c-3.5,0-7.1,0.1-10.6,0.1c-6.6,0-13.1,0-19.7,0h-19.2h-57.5
			h-82.8h-39.2L131.1,394.2z"/>
		<path class="st2" d="M258.7,409.6H257v-9c0.1-0.1,0.2-0.2,0.3-0.2c1,0.2,2,0.1,3-0.1c0.6-0.2,1.4,0.4,2.4,0.8c-0.2,0.1,0,0,0.1,0
			c2-1.5,3.8-0.8,4,1.6s0,4.6,0,7h-1.7c0-1.3,0-2.6,0-3.9s0.3-2.6-0.8-3.6c-1,0.4-1.7,1.4-1.6,2.4c0,1.7,0,3.3,0,5.1H261
			c0-1.3,0-2.6,0-3.9s0.3-2.6-0.8-3.6c-1,0.3-1.6,1.2-1.6,2.2C258.7,406.1,258.7,407.8,258.7,409.6z"/>
		<path class="st6" d="M323.3,400.5c0,0.5,0.2,1,0,1.2c-0.8,0.7-0.6,1.6-0.7,2.5c-0.2,2-1.4,2.8-4.1,2.5c0.3,0.2,0.6,0.4,0.9,0.5
			c0.5,0.1,1.1,0.1,1.6,0.1c1.1,0,2.1,0.8,2.2,1.9c0.3,1.2-0.2,2.5-1.3,3.2c-0.6,0.3-1.3,0.5-2,0.5c-2.8,0.1-3.8-1.4-2.8-4
			c0.1-0.2,0.2-0.5,0.2-0.6c-0.5-0.9-0.5-2,0-2.9c0.1-0.2-0.1-0.6-0.2-0.9c-0.1-0.7,0-1.5,0.1-2.2c0.2-1.2,1.3-2.1,2.5-2
			C321,400.3,322,400.4,323.3,400.5z M318.9,403.3c-0.1,0.8,0.3,1.5,1,1.5s1-0.5,1.1-1.1c0.1-0.8-0.4-1.7-1-1.8
			S319,402.5,318.9,403.3L318.9,403.3z M319.9,411.1c1,0,1.7-0.4,1.6-1.1c-0.1-0.9-0.9-0.8-1.5-0.9l0,0c-0.9,0-1.3,0.3-1.4,1
			S319,411.1,319.9,411.1L319.9,411.1z"/>
		<path class="st6" d="M137,403.6c0.6,1.7,1.1,3.3,1.6,5c0.2,0.5,0.3,1-0.4,1.2s-1.2,0.1-1.4-0.7c-0.4-1.2-0.7-2.4-1.1-3.5
			c-0.3-0.9-0.4-0.9-1.7-1.1c0,0.6-0.1,1.1-0.1,1.7c0,0.8,0,1.5,0,2.2c0,1.4-0.1,1.5-1.7,1.1c0-0.3-0.1-0.6-0.1-0.9
			c0-3.3,0-6.5,0-9.8c0-1.4,0.1-1.5,1.6-1.6h1c1.3,0,2.6,0.3,3.2,1.6c0.7,1.4,0.5,3.1-0.5,4.4C137.2,403.4,137.1,403.5,137,403.6z
			 M134,402.5c0.9,0.2,1.8,0.2,2.1-0.7c0.2-0.6,0.2-1.3,0-1.9c-0.4-0.8-1.2-0.7-2.1-0.5V402.5z"/>
		<path class="st6" d="M217.2,409.5c-0.1,0.1-0.2,0.2-0.2,0.1c-0.6-0.1-1.1-0.2-1.7-0.2c-0.6,0-1.2,0.4-1.8,0.4
			c-0.9,0-1.7-0.5-2-1.4c-0.9-2.2-0.8-4.6,0.1-6.7c0.4-1,1.4-1.6,2.5-1.4c0.5,0.1,1,0.2,1.5,0.3v-4h1.7L217.2,409.5z M214.1,401.9
			c-1.8,1.4-1.4,3.1-1.3,4.6c0,0.6,0.4,1.2,1,1.3c0.7,0.1,1.3-0.3,1.5-1c0.3-1,0.3-2.1,0.2-3.1C215.4,403,214.6,402.5,214.1,401.9
			L214.1,401.9z"/>
		<path class="st6" d="M284.3,409.5c-0.1,0.1-0.2,0.2-0.2,0.1c-1.1-0.1-2.3-0.1-3.4,0.2c-1,0.1-1.9-0.5-2.2-1.5
			c-0.8-2-0.8-4.3,0-6.3c0.4-1.3,1.8-2,3.1-1.6c0.3,0.1,0.6,0.2,1,0.3v-4h1.7V409.5z M281.1,402.1c-1.4,1-1.8,4.1-0.8,5.3
			c0.4,0.5,0.9,0.5,1.5,0.1c1-0.7,0.7-1.8,0.8-2.8C282.9,403.6,282.2,402.5,281.1,402.1L281.1,402.1z"/>
		<path class="st6" d="M149.4,409.6v-13c0.2-0.1,0.4-0.1,0.7-0.1s0.6,0.1,0.9,0.1v3.9c0.2,0.1,0.4,0.2,0.4,0.2
			c2.3-0.8,3.6-0.2,4.1,2.2c0.4,1.7,0.3,3.4-0.3,5.1c-0.3,1.4-1.7,2.2-3,1.9c-0.2,0-0.4-0.1-0.5-0.2c-0.3-0.2-0.8-0.2-1.1,0
			C150.4,409.8,149.9,409.6,149.4,409.6z M152.6,401.9c-0.5,0.6-1.3,1.1-1.4,1.7c-0.2,1.1-0.1,2.2,0.2,3.3c0.1,0.6,0.7,1,1.3,0.9
			c0.3,0,0.5-0.2,0.7-0.4C154.4,406.2,154.1,403.3,152.6,401.9L152.6,401.9z"/>
		<path class="st6" d="M351.9,396.5h1.7v4.2c0.5-0.2,0.8-0.3,1.1-0.4c1.3-0.4,2.7,0.2,3.1,1.5c0,0.1,0,0.1,0.1,0.2
			c0.7,1.9,0.7,4.1-0.1,6c-0.4,1.3-1.7,2.1-3.1,1.7c-0.1,0-0.3-0.1-0.4-0.2c-0.4-0.2-0.8-0.2-1.1,0c-0.9,0.4-1.3,0.1-1.3-0.9
			c0-2.5,0-4.9,0-7.4L351.9,396.5z M355.1,401.9c-0.5,0.6-1.3,1.1-1.4,1.7c-0.2,1.1-0.1,2.2,0.2,3.3c0.1,0.6,0.7,1,1.3,0.9
			c0.3-0.1,0.6-0.3,0.8-0.5C357,406,356.6,403.3,355.1,401.9z"/>
		<path class="st6" d="M232.1,409.5c-1.8,0.3-1.9,0.3-2.2-1c-0.1-0.6-0.3-1.1-0.5-1.8H226c-0.2,0.6-0.4,1.2-0.5,1.9
			c-0.4,1.2-0.4,1.2-2,0.9c0.1-0.5,0.1-1,0.2-1.5c0.9-3.2,1.8-6.4,2.7-9.6c0.2-0.6,0.3-1.1,1.1-1.2s1.2,0.1,1.5,1.2
			c0.7,2.3,1.3,4.6,1.9,7C231.4,406.7,231.7,408,232.1,409.5z M227.8,400.7h-0.2c-0.3,1.2-0.7,2.5-1,3.9h2.3
			C228.5,403.2,228.1,402,227.8,400.7L227.8,400.7z"/>
		<path class="st6" d="M168.9,400.4h4c0.5,1.2,0.6,7.5,0.2,9.2c-1.4,0.2-1.6,0.2-1.6-1.1c0-2,0-4,0-6H169v5.3h1.4
			c0.4,1.3,0.3,1.8-0.4,2c-1,0.4-2.1,0-2.6-1c-0.2-0.7-0.3-1.5-0.4-2.2c-0.1-1.3,0-2.6,0-3.8c-1.5-1.1-1.5-1.8,0-2.5
			c0-0.3,0-0.7,0-1.1c0-0.7,0.3-1,1-1s0.9,0.5,0.9,1.1C168.8,399.5,168.9,399.9,168.9,400.4z"/>
		<path class="st7" d="M360.4,393.9h-20H212.6c-0.6,0-1.2,0-1.8,0c0.5-0.1,1-0.2,1.5-0.2c22.6,0,45.2,0,67.8,0c16,0,31.9,0,47.8-0.1
			c10.3,0,20.6,0,30.9,0C359.4,393.7,359.9,393.8,360.4,393.9z"/>
		<path class="st6" d="M336.1,400.3c-0.5-0.3-0.8-0.5-1.2-0.8c-1.2-0.7-2.4-0.5-3,0.8c-1,2-1,4.2-0.1,6.2c0.4,1,1.6,1.5,2.6,1.1
			c0.1,0,0.2-0.1,0.2-0.1c0.5-0.2,1-0.5,1.5-0.8c0.6,1.6,0.4,2.1-0.8,2.7c-1.7,1-4,0.5-5-1.2c-0.1-0.1-0.1-0.2-0.2-0.4
			c-1.4-2.8-1.3-6.2,0.3-8.9c1.1-1.7,3.4-2.3,5.1-1.2l0.1,0.1C336.7,398.4,336.8,398.9,336.1,400.3z"/>
		<path class="st6" d="M343.1,400.5c1.8-0.1,1.8-0.1,1.8,1.2s0,2.7,0,4c0,0.4,0,0.9,0.1,1.3c0.2,0.9,0.9,1,1.6,0.5
			c0.6-0.4,0.9-1.1,0.8-1.8c0-1.7,0-3.4,0-5.3l1.7-0.1c0.1,3.1,0.1,6.2,0,9.5c-0.7-0.2-1.4-0.3-2.1-0.4c-0.7,0-1.4,0.4-2,0.3
			c-0.6-0.3-1.2-0.7-1.5-1.2c-0.3-0.4-0.4-0.9-0.4-1.4C343,404.9,343,402.7,343.1,400.5z"/>
		<path class="st6" d="M288.6,405.9c0.2,1.8,0.9,2.2,2.4,1.9c0.5-0.1,1-0.3,1.5-0.4c0.4,1.5,0.3,1.9-0.9,2.3
			c-2.4,0.8-4.2-0.2-4.8-2.6c-0.4-1.6-0.3-3.3,0.4-4.9c0.5-1.2,1.6-2,2.9-1.9c1.3,0,2.4,0.9,2.7,2.1c0,0.2,0.1,0.3,0.1,0.5
			c0.6,2.4,0.2,2.9-2.2,2.9H289C288.8,405.8,288.7,405.8,288.6,405.9z M291.3,403.9c-0.1-1-0.4-1.8-1.4-1.9
			c-0.7-0.1-1.1,0.6-1.3,1.9H291.3z"/>
		<path class="st6" d="M235.4,405.7c0.2,1.9,0.8,2.4,2.4,2.1c0.5-0.1,1-0.3,1.5-0.4c0.6,1.5,0.4,1.9-0.9,2.3
			c-2.4,0.7-4.1-0.3-4.7-2.8c-0.4-1.6-0.3-3.2,0.4-4.8c0.4-1.3,1.7-2,3-1.9c1.3,0,2.4,1,2.6,2.2c0.1,0.3,0.2,0.6,0.2,0.9
			c0.3,2.1,0.1,2.3-2.1,2.3L235.4,405.7L235.4,405.7z M238,403.8c-0.3-1.4-0.6-1.9-1.2-1.9s-1.1,0.6-1.4,1.9H238z"/>
		<path class="st6" d="M199.8,409.6c-0.5,0-0.9,0.2-1.1,0c-0.5-0.3-0.9-0.1-1.3,0c-1.2,0.5-2.5,0-3.1-1.1c-0.1-0.1-0.1-0.3-0.1-0.4
			c-0.6-1.4,0-3.1,1.4-3.8c0.8-0.3,1.6-0.4,2.4-0.6c0-0.3-0.1-0.7-0.2-1c-0.2-0.5-0.7-0.8-1.2-0.7c-0.1,0-0.1,0-0.2,0.1
			c-0.5,0.2-1,0.6-1.5,0.8c-0.8-0.9-0.8-1.4-0.1-2c1.1-0.8,2.6-0.9,3.8-0.4c0.7,0.4,1.2,1.2,1.2,2
			C199.9,404.9,199.8,407.1,199.8,409.6z M198,405.8c-0.5,0-1,0-1.4,0.1c-0.3,0.2-0.6,0.6-0.7,1c0,0.4,0.1,0.7,0.4,0.9
			c0.4,0.1,0.8,0.1,1.2-0.1C198.1,407.3,198.3,406.7,198,405.8z"/>
		<path class="st6" d="M205.9,402.2c-1,0.3-1.7,1.3-1.5,2.3c0.1,1.3,0,2.7,0,4s-0.1,1.2-1.7,1.1c-0.3-3-0.1-6-0.1-9.3
			c0.7,0.2,1.4,0.3,2.1,0.4c0.6,0,1.2-0.4,1.8-0.4c1,0,1.8,0.7,1.9,1.7c0.2,0.6,0.3,1.3,0.3,1.9c0,1.9,0,3.7,0,5.7h-1.8
			c0-1.8,0-3.5,0-5.2C206.9,403.5,206.9,402.6,205.9,402.2z"/>
		<path class="st6" d="M254.9,405.2c-0.2,0.9-0.5,1.9-0.9,2.9c-0.5,1.2-1.7,1.9-3,1.7c-1.3,0.1-2.4-0.8-2.8-2
			c-0.7-1.9-0.7-4,0.1-5.8c0.5-1.2,1.8-2,3.1-1.8c1.3,0,2.4,0.8,2.8,2.1C254.5,403.2,254.6,404.1,254.9,405.2z M252.9,405.2
			c0-0.6-0.1-1.2-0.3-1.8c-0.3-0.6-0.7-1-1.3-1.2c-0.7-0.2-1.2,0.4-1.4,1c-0.5,1.2-0.5,2.6,0,3.8c0.2,0.6,0.7,1,1.4,0.9
			c0.6,0,1.2-0.3,1.4-0.9C252.8,406.3,252.9,405.8,252.9,405.2L252.9,405.2z"/>
		<path class="st6" d="M269,405.2c0.2-1,0.4-1.9,0.7-2.9c0.4-1.3,1.7-2.2,3.1-2.1c1.4-0.1,2.7,0.8,3,2.2c0.7,1.9,0.6,4-0.4,5.8
			c-0.6,1.1-1.8,1.8-3.1,1.6c-1.2,0-2.2-0.7-2.6-1.8C269.5,407.1,269.3,406.1,269,405.2z M274.4,405.1c-0.1-0.7-0.2-1.2-0.4-1.8
			c-0.1-0.7-0.7-1.2-1.3-1.2c-0.7,0-1.2,0.5-1.4,1.1c-0.5,1.2-0.5,2.5,0,3.8c0.3,0.4,0.7,0.8,1.2,0.9c0.6,0.2,1.2-0.2,1.4-0.8l0,0
			C274.1,406.4,274.3,405.8,274.4,405.1L274.4,405.1z"/>
		<path class="st6" d="M164.7,405.2c-0.2,1-0.5,2-0.9,3c-0.8,1.6-2.8,2.1-4.3,1.3c-0.6-0.3-1.1-0.8-1.4-1.5c-0.7-1.8-0.7-3.8,0-5.6
			c0.5-1.4,1.8-2.2,3.3-2.1c1.4,0,2.6,1,2.9,2.3C164.4,403.3,164.5,404.1,164.7,405.2z M162.8,405.1c-0.1-0.6-0.2-1.2-0.3-1.8
			c-0.1-0.7-0.7-1.2-1.3-1.2c-0.7,0-1.3,0.4-1.4,1.1c-0.4,1.2-0.4,2.6,0,3.8c0.2,0.6,0.7,1,1.4,0.9c0.6,0,1.2-0.4,1.3-1
			S162.7,405.7,162.8,405.1z"/>
		<path class="st6" d="M147.2,405.3c-0.2,1-0.5,2-0.9,3c-0.9,1.5-2.9,2-4.4,1.1c-0.5-0.3-0.9-0.8-1.2-1.3c-0.8-1.9-0.8-4,0-5.9
			c0.5-1.2,1.7-2,3.1-1.9c1.3-0.1,2.6,0.8,2.9,2.1C146.9,403.4,147.1,404.3,147.2,405.3z M141.9,404.9c0.1,0.7,0.2,1.4,0.5,2
			c0.3,0.4,0.7,0.7,1.2,0.8c0.5,0,1-0.3,1.3-0.7c0.7-1.3,0.7-2.9,0-4.2c-0.2-0.7-0.9-1.1-1.6-0.8c-0.4,0.1-0.7,0.4-0.8,0.8
			C142.2,403.6,142,404.3,141.9,404.9L141.9,404.9z"/>
		<path class="st6" d="M312.4,402c-1.1,0.3-1.9,1.4-1.8,2.5c0,1.6,0,3.3,0,5.1h-1.7v-9.3c1.4,0.2,2.7-0.1,4,0c1,0.1,1.7,0.9,1.8,1.8
			c0.2,1.1,0.2,2.2,0.3,3.4s0,1.9,0,2.9c0,1.3-0.1,1.4-1.6,1.1C312.6,407.2,313.9,404.5,312.4,402z"/>
		<path class="st6" d="M183,407.1c0.5,0.3,1,0.5,1.6,0.7c0.5,0.1,1.1,0.2,1.4-0.4s-0.1-1-0.6-1.3c-0.7-0.4-1.4-0.9-2-1.5
			c-0.7-0.9-0.7-2.2-0.1-3.2c0.6-0.9,1.8-1.3,2.8-1c1.4,0.3,1.6,0.9,1,2.4c-0.4-0.3-0.8-0.5-1.2-0.6s-0.8,0.1-1.1,0.3
			c-0.1,0.4-0.1,0.8,0.1,1.1c0.4,0.3,0.8,0.6,1.2,0.7c1.6,0.6,2.4,2.3,1.8,3.8c-0.6,1.6-2.3,2.4-3.8,1.8c-0.4-0.1-0.8-0.4-1.1-0.7
			C182.5,408.7,182.7,408,183,407.1z"/>
		<path class="st6" d="M180.7,403.2l-1.2-0.8c-0.8-0.5-1.4-0.4-1.8,0.5c-0.6,1.3-0.6,2.8-0.1,4.1c0.2,0.6,0.9,1,1.5,0.8
			c0.1,0,0.2-0.1,0.4-0.2c0.4-0.2,0.8-0.5,1.2-0.8c0.7,1.2,0.6,1.9-0.3,2.5c-1.3,0.9-3.1,0.6-4-0.7c-0.1-0.2-0.2-0.4-0.3-0.6
			c-0.8-2-0.8-4.2,0-6.1c0.6-1.5,2.3-2.2,3.8-1.5C181,400.9,181.3,401.6,180.7,403.2z"/>
		<path class="st6" d="M297.2,409.5l-1.7,0.1v-13.1l1.7,0.1V409.5z"/>
		<path class="st6" d="M300,396.5l1.6,0.1c0.1,0.3,0.1,0.7,0.1,1c0,3.6,0,7.2,0,10.8c0,1.4-0.1,1.5-1.7,1.1V396.5z"/>
		<path class="st6" d="M338.7,409.5v-12.9h1.6c0.1,0.3,0.1,0.5,0.1,0.8c0,3.6,0,7.3,0,10.9C340.4,409.8,340.3,409.8,338.7,409.5z"/>
		<path class="st7" d="M210.5,393.9c-2.2,0-4.5,0-6.8,0h-71.6h-1c0.6-0.1,1.2-0.2,1.8-0.3c10.7,0,21.4,0,32.1,0
			c14.5,0,28.9,0,43.4,0C209.1,393.6,209.8,393.7,210.5,393.9z"/>
		<path class="st6" d="M242.2,409.5v-6c0-0.8,0-1.5,0-2.2s0.4-1,1.1-0.9c0.4,0.1,0.7,0.5,1.1,0.1c0.5-0.4,1.3-0.4,1.8,0.1
			s0.2,1.2,0.1,1.8c-0.6,0.4-1.4-0.4-1.8,0.4c-0.4,0.6-0.6,1.4-0.6,2.1c0,1.2,0,2.4,0,3.5S243.9,409.8,242.2,409.5z"/>
		<path class="st2" d="M304.4,400.6c1.5-0.4,1.6-0.3,1.6,0.9c0,2.6,0,5.2,0,8l-1.7,0.1L304.4,400.6z"/>
		<path class="st6" d="M171.4,398.2c0-0.8,0.3-1.1,1-1.2s1,0.4,1,1.1s-0.3,1.3-1,1.4S171.4,399,171.4,398.2z"/>
		<path class="st6" d="M304.2,398.1c0-0.7,0.4-1.1,1-1.1s1,0.4,1,1c0,0.1,0,0.1,0,0.1c0,0.8-0.4,1.3-1,1.3S304.2,399,304.2,398.1z"
			/>
	</g>
	<g id="left_1_">
		<path class="st8" d="M91.1,398.6c0.5,0.3,0.9,0.6,1.3,0.9c3.5,3.3,7,6.6,10.5,10c0.9,0.9,1.9,1.7,2.9,2.6c0.4,0.4,0.7,0.9,1,1.3
			c-0.5,0.1-1,0.1-1.5,0.1c-3.9-0.6-7.6-2.2-10.8-4.6c-1.6-1.3-3.4-2.5-5.1-3.7C90.1,403,90.6,400.8,91.1,398.6z"/>
		<path class="st9" d="M91.1,398.6c-0.5,2.2-1.1,4.3-1.6,6.5c-0.9-0.6-1.9-1.1-2.8-1.8c-0.4-0.4-0.7-0.9-1-1.4
			c0.6-2.3,1.1-4.5,1.7-6.8h0.1C89,395.9,90.3,397.1,91.1,398.6z"/>
		<g id="left">
			<path class="st10" d="M43.4,324.1l1.5,1.1l0.1,0.5c-0.2,0.5-0.4,1.1-0.5,1.6c-0.7,3-1.3,6-2.2,9c-0.3,1.1-0.2,2.5-1.3,3.3
				l-2.4-1.6l-0.1-0.1c-1-1.5-2.2-2.8-3.6-3.9l-0.3-0.3c-0.1-0.2-0.1-0.4-0.2-0.6c-2.5-3-4.5-6.3-5.9-9.9c-1.4-3.5-2.6-7-3.8-10.5
				c-0.3-0.8-0.5-1.6-0.8-2.5l1.1,0.2l2.5,1.8l1.4,1.1c0.1,0.1,0.1,0.1,0.2,0.2l2.7,1.8l0,0l0.7,0.6L34,317c1.2,1,2.3,2,3.6,2.9
				c0.9,0.7,2,1.2,3,1.8l0,0c0.3,0.9,1.1,1.5,2,1.6c0.1,0.1,0.1,0.1,0.2,0.1L43.4,324.1z"/>
			<path class="st11" d="M41,339.7c1.1-0.8,1-2.2,1.3-3.3c0.8-3,1.5-6,2.2-9c0.1-0.5,0.3-1.1,0.5-1.6l0.5,0.1l1.9,1.4l0.7,0.5v0.1
				c0.4,0.5,0.8,0.9,1.2,1.3c1.3,1.1,2.7,2.2,4,3.4c-0.3,0.6-0.5,1.3-0.7,1.9c-1,3.6-2,7.2-2.9,10.8c-0.8-0.5-1.7-0.9-2.5-1.4
				c-2-1.1-3.9-2.3-5.8-3.5l-0.1-0.1L41,339.7z"/>
			<path class="st12" d="M60.5,351.3l-0.6-0.3l-0.7-0.4l-0.6-0.3l-1-0.7l-0.7-0.4l-0.4-0.5c0.8-0.4,0.9-1.3,1.1-2
				c0.9-3.3,1.7-6.7,2.6-10l1,0.6L62,338l1,0.8l1,0.9l0.7,0.3l2.8,2.1l0.7,0.5l0.6,0.4l0.1,0.5c-0.7,2.9-1.4,5.9-2.2,8.8
				c-0.2,0.7-0.5,1.3-0.8,1.9l-0.6-0.1l-1.2-0.8C63.2,352.3,61.9,351.6,60.5,351.3z"/>
			<path class="st13" d="M79.1,354.8c0.1,0.8,0.1,1.7,0.2,2.5l-0.2,0.4c-0.7,0.5-1.2,1.3-1.2,2.1c-0.1,0.9-0.2,1.8-0.5,2.7
				c-0.6,2.2-1.2,4.3-1.8,6.5c-1,4-2,8.1-3,12.1c-0.1,0.3-0.6,0.5-0.9,0.8l-0.4-0.3V381c0.1-0.6,0.1-1.2,0.1-1.7
				c-0.2-2.3-0.5-4.5-0.8-6.8c0-0.1-0.2-0.2-0.3-0.4s0-0.4,0-0.5c0.1-0.8,0.4-1.6-0.3-2.4c0-0.4,0-0.9,0-1.3c1-0.1,0.4,1.2,1.2,1.5
				c0.2-0.5,0.3-0.9,0.5-1.4c0.5-2,1-4,1.5-6.1c0.7-2.9,1.5-5.7,2.2-8.5c0.4-1.4,0.8-2.8,1.1-4.2h0.6l0.6,0.4
				c0.2,0.2,0.4,0.4,0.6,0.6l0.5,3.2L79.1,354.8z"/>
			<path class="st13" d="M40.4,364.5l-2-1.6h1.4c0.1-0.2,0.2-0.4,0.3-0.6c1.2-3.3,2.5-6.6,3.7-10c0.5-1.3,0.8-2.6,1.2-3.9l5.8,3.2
				c-0.5,1.6-1,3.2-1.6,4.8c-1.3,3.5-2.6,6.9-3.8,10.3c-1-0.5-2.1-1-3.1-1.4C41.6,365,41,364.8,40.4,364.5z"/>
			<path class="st14" d="M60.2,336.7c-0.9,3.3-1.7,6.7-2.6,10c-0.2,0.8-0.2,1.6-1.1,2l-6.7-3.5c1-3.6,1.9-7.2,2.9-10.8
				c0.2-0.6,0.4-1.3,0.7-1.9l1.5,0.4l1.7,1.2c0.2,0.6,0.6,1.1,1.3,1L60.2,336.7z"/>
			<path class="st15" d="M71.4,381.6l0.4,0.3c0.1,1.9,0.1,3.8,0.4,5.6c0.1,1.2,0.5,2.3,1.3,3.3c0.3-1,0.6-1.8,0.9-2.6
				c0.4-1.6,0.7-3.2,1.1-4.8c1.1-4.3,2.2-8.5,3.3-12.8c0.3-1.3,0.7-2.5,1.1-3.8h0.3c0,0.8,0.1,1.7,0.1,2.5s-0.4,1.6,0.3,2.3l0.1,1.8
				c0.1,0.7,0.1,1.4,0.2,2c0,0.4,0,0.8,0.1,1.3c0,1,0,2,0,2.9c-0.3,0.7-0.6,1.3-0.8,2c-0.5,1.9-1,3.8-1.4,5.7
				c-0.3,1.1-0.4,2.2-0.7,3.3c-0.5,1.6-1,3.2-1.5,4.8c-2-1.2-3.4-3.2-4-5.4C71.5,387.3,71.1,384.4,71.4,381.6z"/>
			<path class="st16" d="M79.8,366.7c-0.4,1.3-0.7,2.5-1.1,3.8c-1.1,4.3-2.2,8.5-3.3,12.8c-0.4,1.6-0.7,3.2-1.1,4.8
				c-0.2,0.8-0.5,1.6-0.9,2.6c-0.8-0.9-1.2-2.1-1.3-3.3c-0.3-1.8-0.3-3.7-0.4-5.6c0.3-0.2,0.8-0.4,0.9-0.8c1-4,2-8.1,3-12.1
				c0.6-2.2,1.2-4.3,1.8-6.5c0.2-0.9,0.3-1.8,0.5-2.7c0-0.9,0.5-1.7,1.2-2.1c0.1,0.2,0.2,0.4,0.4,0.7c0.1,1,0.1,1.9,0.2,2.9
				c0,0.6-0.1,1.1-0.1,1.7c-0.4,0.6-0.5,1,0.3,1.3c0.1,0.5,0.1,1.1,0.2,1.6L79.8,366.7z"/>
			<path class="st11" d="M29.1,339.7l0.8,0.4l0.6,0.2l0.7,0.4l0.8,0.5c0.1,0,0.2,0,0.2,0.1c0,0,0,0,0,0.1l1.6,1.4
				c0,0.2-0.1,0.4-0.1,0.6c-1.1,2.7-2.1,5.5-3.2,8.2c-0.1,0.3-0.4,0.4-0.6,0.7c-0.9-1.9-1.8-3.7-2.7-5.6c-1.3-3-2.5-6-3.8-9
				c-0.1-0.2-0.2-0.5-0.2-0.8c2,0.5,3.9,1.4,5.6,2.6L29.1,339.7z"/>
			<path class="st17" d="M35.8,360.5c-1.4-1.2-2.5-2.6-3.4-4.1c1.6-4,3.1-8,4.7-11.9l1.7,0.8l2.7,1.3c-0.4,1.4-0.8,2.8-1.3,4.1
				c-1.1,2.9-2.2,5.8-3.3,8.7C36.5,359.7,36.2,360.1,35.8,360.5z"/>
			<path class="st15" d="M50.8,351.6l-5.8-3.2c-0.5-0.1-1-0.2-1-0.8c1.6,0.7,3.2,1.5,4.8,2.2s3,1.5,4.4,2.3s2.8,1.9,4.2,2.8
				c-0.1,0.4-0.2,0.8-0.3,1.2c-1,2.7-2,5.4-3.1,8.1c-0.8,1.9-1.7,3.8-2.5,5.7l-0.9-0.2l-2-1.4c0.1-0.7,0.3-1.3,0.5-2
				c1.4-3.8,2.9-7.7,4.3-11.5c0.5-1.4,0.4-1.7-0.9-2.4C52,352.1,51.4,351.9,50.8,351.6z"/>
			<path class="st17" d="M66,354.2c0.3-0.6,0.6-1.2,0.8-1.9c0.8-2.9,1.4-5.9,2.2-8.8l4.9,3.8c-1,4-2,8-3,11.9
				c-0.2,0.6-0.5,1.1-1.2,1c0-1-0.5-1.9-1.3-2.6c-0.1,0-0.1-0.1-0.2-0.2c0-0.8-0.4-1.4-1.1-1.8l-0.7-0.7L66,354.2z"/>
			<path class="st18" d="M60.8,373.5c-1.5-0.4-2.9-0.7-4.4-1.1c-0.3-0.1-0.5-0.5-0.8-0.8c0.4-0.5,0.8-1.1,1.1-1.6
				c1.6-4.1,3.2-8.2,4.8-12.3c1.8,0.5,2.1,2.2,2.8,3.6c0.3,0.7,0.5,1.5,0.7,2.3c-0.3,0.3-0.8,0.5-1,0.9c-1,2.3-1.9,4.6-2.8,7
				C61,372.1,60.9,372.8,60.8,373.5z"/>
			<path class="st19" d="M44,347.6c0,0.6,0.5,0.7,1,0.8c-0.4,1.3-0.7,2.6-1.2,3.9c-1.2,3.4-2.5,6.7-3.7,10c-0.1,0.2-0.2,0.4-0.3,0.6
				h-1.4l-2.7-2.5c0.4-0.3,0.7-0.7,1-1.2c1.2-2.9,2.3-5.8,3.3-8.7c0.5-1.4,0.9-2.8,1.3-4.1l1.5,0.6L44,347.6z"/>
			<path class="st19" d="M69.6,360.2c0.8,0.1,1-0.4,1.2-1c1-4,2-8,3-11.9l1.3,0.4l1.6,1.1v0.5c-0.4,1.4-0.8,2.8-1.1,4.2
				c-0.7,2.9-1.5,5.7-2.2,8.5c-0.5,2-1,4-1.5,6.1c-0.1,0.5-0.3,0.9-0.5,1.4c-0.8-0.2-0.1-1.5-1.2-1.5l-0.2-1.3
				c0.1-0.4,0.2-0.7,0.2-1.1C70.2,363.8,70,362,69.6,360.2z"/>
			<path class="st16" d="M50.8,351.6c0.6,0.3,1.2,0.5,1.7,0.8c1.3,0.7,1.4,1,0.9,2.4c-1.4,3.8-2.9,7.7-4.3,11.5
				c-0.2,0.7-0.4,1.3-0.5,2h-0.7l-0.6-0.2c-0.3-0.3-0.7-0.5-1-0.8c-0.3-0.3-0.6-0.4-1-0.6c1.3-3.4,2.6-6.9,3.8-10.3
				C49.8,354.8,50.3,353.2,50.8,351.6z"/>
			<path class="st5" d="M40.2,369.9l4.2,1.8c0.4,0.4,0.9,0.7,1.3,1c0.4,0.2,0.8,0.4,1.3,0.6c0,0.6-0.1,1.2-0.2,1.9
				c-0.6,1.6-1.2,3.1-1.8,4.7c-0.4,1-0.5,1-1.7,0.7c-1.8-3.8-3.7-7.5-5.5-11.3L40.2,369.9z"/>
			<path class="st12" d="M37,344.4c-1.6,4-3.1,8-4.7,11.9c-1.2-1.1-2.1-2.5-2.7-4.1c0.2-0.2,0.5-0.4,0.6-0.7
				c1.1-2.7,2.1-5.5,3.2-8.2c0.1-0.2,0.1-0.4,0.1-0.6l-1.6-1.4l2.9,1.5l0.7,0.2l0.3,0.4L37,344.4z"/>
			<path class="st14" d="M43.2,380.6c1.2,0.3,1.3,0.3,1.7-0.7c0.6-1.6,1.3-3.1,1.8-4.7c0.1-0.6,0.2-1.2,0.2-1.9l0.3-0.2l0.6,0.2
				c0.3,0.2,0.5,0.5,0.8,0.6c0.8,0.5,1.6,1,2.4,1.4c-0.4,1.3-0.9,2.6-1.3,3.9c-0.6,1.7-1.2,3.4-1.9,5.1l-1.6-0.6
				C45,383,43.9,381.9,43.2,380.6z"/>
			<path class="st20" d="M51.5,369.9c0.8-1.9,1.7-3.8,2.5-5.7c1.1-2.7,2.1-5.4,3.1-8.1c0.1-0.4,0.2-0.8,0.3-1.2l0.9,0.2
				c0,0.5,0.3,0.6,0.8,0.5l0.6,0.3c-0.1,1.4-0.5,2.8-1.1,4.1c-0.7,1.9-1.5,3.8-2.2,5.6c-0.5,1.4-1.1,2.8-1.6,4.2
				c-0.1,0.4-0.6,0.7-1,0.6h-0.1c-0.6-0.2-1.2-0.3-1.8-0.4C51.6,370,51.5,370,51.5,369.9z"/>
			<path class="st20" d="M76.3,395.5c0.5-1.6,1.1-3.2,1.5-4.8c0.3-1.1,0.5-2.2,0.7-3.3c0.5-1.9,0.9-3.8,1.4-5.7
				c0.2-0.7,0.5-1.3,0.8-2h0.4c0.1,0.7,0.1,1.3,0.2,2c-0.4,1.4-0.3,3,0.2,4.4c0.3,1,0.3,2-0.1,3c-0.6,2.1-1.1,4.2-1.6,6.3
				c-0.2,0.6-0.5,1.2-0.8,1.7c-0.2-0.1-0.5-0.3-0.7-0.4c-0.2-0.1-0.5-0.1-0.8-0.2L76.3,395.5z"/>
			<path class="st7" d="M77.6,396.5c0.2,0.1,0.5,0.1,0.8,0.2c0.2,0.1,0.5,0.3,0.7,0.4c0.3-0.6,0.6-1.1,0.8-1.7
				c0.6-2.1,1-4.2,1.6-6.3c0.3-1,0.4-2,0.1-3c-0.5-1.4-0.6-3-0.2-4.4c0.1,0.2,0.3,0.5,0.3,0.7c0.1,3.4,1,6.7,2.7,9.6
				c-0.5,2.1-0.9,4.1-1.4,6.2c-0.1,0.7-0.6,1.2-1.2,1.3c-1.3-0.7-2.6-1.5-3.8-2.2C77.8,397,77.7,396.7,77.6,396.5z"/>
			<path class="st8" d="M60.8,373.5c0.1-0.7,0.3-1.5,0.5-2.2c0.9-2.3,1.8-4.7,2.8-7c0.2-0.4,0.6-0.6,1-0.9c0.1,0.5,0.3,1,0.3,1.6
				c0.3,2.4,0.6,4.9,0.9,7.3c0.2,1.3,0.2,2.5-0.1,3.8C64.2,375.5,62.4,374.7,60.8,373.5z"/>
			<path class="st19" d="M53.7,386.8l-3.5-1.3c0.4-0.4,0.7-0.9,1-1.4c1-2.6,1.9-5.1,2.9-7.7h0.6l1.6,0.7c0.1,0.2,0.3,0.4,0.4,0.5
				s0.4,0.4,0.6,0.6c-0.6,1.4-1.2,2.9-1.7,4.3s-0.8,2.7-1.3,4.1L53.7,386.8z"/>
			<path class="st7" d="M51.7,370c0.6,0.1,1.2,0.3,1.8,0.4c0.4,0.2,0.9,0,1.1-0.4v-0.1c0.5-1.4,1.1-2.8,1.6-4.2
				c0.7-1.9,1.5-3.8,2.2-5.6c0.6-1.3,1-2.7,1.1-4.1c1,0.1,1.3,1,1.9,1.7c-1.6,4.1-3.1,8.2-4.8,12.3c-0.3,0.6-0.7,1.1-1.1,1.6
				C54.2,371.5,52.8,371,51.7,370z"/>
			<path class="st18" d="M87.3,395.1c-0.6,2.3-1.1,4.5-1.7,6.8c-1.6-0.3-3-1.2-3.9-2.6c0.7-0.1,1.2-0.6,1.2-1.3
				c0.5-2.1,0.9-4.1,1.4-6.2c1.1,0.4,1.4,1.5,2.2,2.2C86.9,394.4,87.1,394.7,87.3,395.1z"/>
			<path class="st12" d="M54,376.5c-1,2.6-1.9,5.2-2.9,7.7c-0.3,0.5-0.6,1-1,1.4l-1.6-0.4l-0.6-0.6c0.6-1.7,1.3-3.4,1.9-5.1
				c0.5-1.3,0.9-2.6,1.3-3.9L54,376.5z"/>
			<path class="st15" d="M25,310.6l-1.1-0.2c0.3,0.9,0.5,1.7,0.8,2.5c1.2,3.5,2.4,7.1,3.8,10.5c1.4,3.6,3.4,6.9,5.9,9.9
				c0.1,0.2,0.2,0.4,0.2,0.6c-0.1,0-0.1,0-0.2,0c-1.5-1.9-3.4-3.5-4.3-5.8c-0.9-2.3-2.2-4.9-3.2-7.3c-1.1-2.9-2.1-5.8-3.1-8.8
				c-0.2-0.3-0.3-0.7-0.4-1c-0.1-0.5-0.2-1-0.3-1.6C23.9,309.3,24.7,309.8,25,310.6z"/>
			<path class="st8" d="M65.3,384.1c1.3,2.3,1.9,4.8,1.7,7.4l-4.3-1.6c0.6-1.8,1.3-3.6,1.9-5.4C64.8,384.3,65.1,384.2,65.3,384.1z"
				/>
			<path class="st16" d="M54.4,386.7c0.4-1.4,0.8-2.8,1.3-4.1s1.1-2.9,1.7-4.3h1.3c0.1,0,0.2,0.1,0.2,0.1c0.3,0.9,0.2,1.8-0.2,2.6
				c-0.7,1.9-1.4,3.8-2.1,5.7c-0.1,0.2-0.4,0.3-0.6,0.4L54.4,386.7z"/>
			<path class="st15" d="M55.9,387.1c0.2-0.1,0.5-0.2,0.6-0.4c0.7-1.9,1.5-3.8,2.1-5.7c0.4-0.8,0.5-1.7,0.2-2.6l1.9,1
				c0,0.7-0.1,1.3-0.3,2c-0.8,2.3-1.7,4.6-2.6,6.9H57L55.9,387.1z"/>
			<path class="st18" d="M61.8,380c0.4,0.2,0.8,0.4,1.1,0.7c0.3,0.5,0.6,1,0.8,1.5c-0.8,2-1.7,4-2.5,6c-0.1,0.4-0.1,0.7-0.1,1.1
				l-2.3-0.6c0.3-0.3,0.5-0.6,0.7-0.9c0.8-2,1.5-4,2.3-6C62.1,381.2,62,380.6,61.8,380z"/>
			<path class="st9" d="M61.2,389.3c0-0.4,0-0.7,0.1-1.1c0.8-2,1.7-4,2.5-6l1.6,1.9c-0.2,0.1-0.6,0.2-0.6,0.4
				c-0.7,1.8-1.3,3.6-1.9,5.4L61.2,389.3z"/>
			<path class="st7" d="M61.8,380c0.3,0.6,0.3,1.2,0.1,1.9c-0.8,2-1.5,4-2.3,6c-0.2,0.3-0.4,0.6-0.7,0.9l-1-0.4
				c0.9-2.3,1.8-4.5,2.6-6.9c0.2-0.7,0.3-1.3,0.3-2L61.8,380z"/>
			<path class="st15" d="M49.8,345.2l6.7,3.5l0.4,0.5c-1.1-0.3-2.1-0.7-3.1-1.2c-3.1-1.7-6.1-3.5-9.2-5.2c-0.9-0.5-1.8-1.1-2.7-1.7
				c-0.2-0.1-0.3-0.5-0.5-0.8c1.9,1.2,3.9,2.3,5.8,3.5C48.2,344.3,49,344.7,49.8,345.2z"/>
			<path class="st21" d="M55,332.8l-1.5-0.4c-1.3-1.1-2.7-2.2-4-3.4c-0.4-0.4-0.9-0.9-1.2-1.3c0.8,0.5,1.6,1,2.3,1.6
				c1.3,0.9,2.7,1.9,4,2.9C54.7,332.4,54.9,332.6,55,332.8z"/>
			<path class="st15" d="M69.6,360.2c0.5,1.8,0.7,3.6,0.6,5.4c0,0.4-0.1,0.7-0.2,1.1c-0.2-0.9-0.4-1.9-0.5-2.8
				c-0.2-2.1-0.6-4.2-1.2-6.2C69.1,358.3,69.5,359.2,69.6,360.2z"/>
			<path class="st15" d="M70.4,372.2c0.1,0.1,0.3,0.2,0.3,0.4c0.3,2.2,0.5,4.5,0.8,6.8c0,0.6,0,1.2-0.1,1.7
				c-0.1-0.1-0.2-0.2-0.3-0.4c-0.5-2.6-0.8-5.3-0.8-8C70.3,372.5,70.3,372.3,70.4,372.2z"/>
			<path class="st16" d="M37,344.4l-1-1c1.8,0.2,3.2,1.4,4.8,2.1c0.8,0.4,1.5,1,2.1,1.5l-1.4-0.6l-2.7-1.3L37,344.4z"/>
			<path class="st16" d="M75,347.7l-1.3-0.4l-4.8-3.9l-0.1-0.5c1,0.3,1.8,0.8,2.5,1.5c0.8,0.8,1.7,1.5,2.7,2.1
				C74.4,346.9,74.7,347.3,75,347.7z"/>
			<path class="st15" d="M45.3,366.7c0.3,0.2,0.7,0.4,1,0.6s0.7,0.5,1,0.8c-1.1-0.3-2.1-0.7-3.1-1.1c-1.3-0.7-2.6-1.6-3.8-2.5
				c0.6,0.3,1.2,0.5,1.8,0.8C43.3,365.8,44.3,366.3,45.3,366.7z"/>
			<path class="st15" d="M40.5,321.9c-1-0.6-2-1.1-3-1.8c-1.2-0.9-2.4-1.9-3.6-2.9c0.9,0.5,1.7,0.9,2.6,1.5c1.1,0.7,2.1,1.4,3.1,2.2
				C39.9,321.1,40.2,321.5,40.5,321.9z"/>
			<path class="st13" d="M54,376.5l-2.9-1c-0.8-0.5-1.6-0.9-2.4-1.4c-0.3-0.2-0.6-0.4-0.8-0.6c1,0.4,2,0.7,2.9,1.1
				c1.2,0.5,2.3,1,3.5,1.5c0.2,0.1,0.2,0.3,0.4,0.5L54,376.5z"/>
			<path class="st15" d="M34.9,334.1c1.4,1.1,2.6,2.4,3.6,3.9C37.1,336.9,35.6,335.9,34.9,334.1z"/>
			<path class="st15" d="M60.5,351.3c1.4,0.3,2.7,1,3.7,2C62.7,353.1,61.4,352.4,60.5,351.3z"/>
			<path class="st7" d="M55.9,387.1l1.1,1.1c-1.3-0.1-2.5-0.3-3.3-1.4l0.7-0.1L55.9,387.1z"/>
			<path class="st15" d="M41,339.7l0.4,0.5c-1.4-0.1-2.1-1.1-2.8-2.2L41,339.7z"/>
			<path class="st15" d="M31.8,315.5l-2.7-1.8C30.2,313.9,31.3,314.2,31.8,315.5z"/>
			<path class="st13" d="M47.3,373.1l-0.3,0.2c-0.4-0.2-0.9-0.4-1.3-0.6c-0.5-0.3-0.9-0.6-1.3-1L47.3,373.1z"/>
			<path class="st13" d="M40.2,369.9l-2.5-0.6l-0.4-0.9C38.5,368.9,39.5,369.1,40.2,369.9z"/>
			<path class="st7" d="M81.2,379.6h-0.4c0-1,0-2,0-2.9C81.8,377.6,81.4,378.6,81.2,379.6z"/>
			<path class="st7" d="M47.9,368.4h0.7l2,1.4C49.6,369.5,48.4,369.5,47.9,368.4z"/>
			<path class="st15" d="M58.6,378.3h-1.3c-0.2-0.2-0.4-0.4-0.6-0.6s-0.3-0.4-0.4-0.5C57.2,377.1,58.1,377.5,58.6,378.3z"/>
			<path class="st13" d="M47.9,384.5l0.6,0.6c-0.9,0-1.7-0.5-2.2-1.3L47.9,384.5z"/>
			<path class="st7" d="M80.6,371.6c-0.6-0.7-0.3-1.5-0.3-2.3C80.9,369.8,81,370.8,80.6,371.6z"/>
			<path class="st15" d="M70.1,369.3c0.6,0.7,0.4,1.6,0.3,2.4C69.9,371,69.8,370.1,70.1,369.3z"/>
			<path class="st15" d="M42.5,323.5c-0.9-0.1-1.7-0.7-2-1.6L42.5,323.5z"/>
			<path class="st7" d="M80.8,375.5c-0.1-0.7-0.1-1.4-0.2-2C81.2,374,81.3,374.9,80.8,375.5z"/>
			<path class="st15" d="M67,355.7c0.7,0.3,1.1,1,1.1,1.8C67.8,356.9,67.4,356.3,67,355.7z"/>
			<path class="st21" d="M57.9,335c-0.8,0-1.1-0.5-1.3-1L57.9,335z"/>
			<path class="st7" d="M79.5,362.9c0-0.5,0.1-1.1,0.1-1.7c0.8,0.5,0.6,1,0.2,1.7H79.5z"/>
			<path class="st15" d="M28.9,313.5l-1.4-1.1C28.3,312.3,28.6,312.9,28.9,313.5z"/>
			<path class="st15" d="M79.5,362.9h0.4v1.3C79,363.9,79.1,363.5,79.5,362.9z"/>
			<path class="st7" d="M79.1,354.8l-0.1-1.3C79.6,353.8,79.7,354.3,79.1,354.8z"/>
			<path class="st21" d="M62,338l-0.8-0.7C61.7,337.3,62,337.5,62,338z"/>
			<path class="st15" d="M66,354.2l0.4,0.8l-1-0.9L66,354.2z"/>
			<path class="st13" d="M64,339.7l-1-0.9l1,0.6V339.7z"/>
			<path class="st15" d="M57.7,349.6l1,0.7C58,350.6,57.8,350.1,57.7,349.6z"/>
			<path class="st7" d="M81.1,399.7l-0.4-0.7c0.1-0.1,0.1-0.2,0.2-0.4C81.5,399,81.6,399.3,81.1,399.7z"/>
			<path class="st7" d="M79.8,366.7l0.2-1c0.5,0.3,0.5,0.6,0.1,1H79.8z"/>
			<path class="st16" d="M76.6,349.3v-0.5c0.2,0.1,0.4,0.3,0.7,0.5H76.6z"/>
			<path class="st15" d="M43.4,324.1l-0.8-0.5L43.4,324.1z"/>
			<path class="st15" d="M32.5,316l-0.7-0.6L32.5,316z"/>
			<path class="st15" d="M78.5,350.3c-0.2-0.2-0.4-0.4-0.6-0.6C78.1,349.9,78.3,350.1,78.5,350.3z"/>
			<path class="st16" d="M68.2,342.6l-0.7-0.5L68.2,342.6z"/>
			<path class="st15" d="M59.2,350.6l0.7,0.4L59.2,350.6z"/>
			<path class="st15" d="M45.6,325.8l-0.5-0.1l-0.1-0.5C45.4,325.1,45.6,325.4,45.6,325.8z"/>
			<path class="st12" d="M31.9,341.2l-0.8-0.5L31.9,341.2z"/>
			<path class="st16" d="M64,339.7v-0.3l0.7,0.6L64,339.7z"/>
			<path class="st15" d="M48.2,327.7l-0.7-0.5L48.2,327.7z"/>
			<path class="st12" d="M29.1,339.7l-0.5-0.2L29.1,339.7z"/>
			<path class="st12" d="M30.5,340.3l-0.6-0.2L30.5,340.3z"/>
			<path class="st16" d="M35.8,343.1l-0.7-0.2L35.8,343.1z"/>
		</g>
	</g>
	<g id="top">
		<path class="st22" d="M218.8,176.2l1,1.2l0.7,1.3c0.7-0.1,1.3,0.1,1.6-0.6c1-0.2,2.1-0.5,3.1-0.7c3.1-0.6,6.2-1.3,9.3-1.9
			c0.9-0.2,1.3-0.5,1.4-1.4c0.8-5.5,1.7-10.9,2.5-16.4c0-0.2,0.1-0.4,0.2-0.8c5.1-0.3,10.1-0.3,15.2,0c0.4,2.3,0.7,4.5,1.1,6.7
			c0.6,3.6,1.1,7.1,1.7,10.7c0.1,0.9,0.4,1.1,1.1,0.8c0.1-0.1,0.1-0.3-0.1-0.5c0.1,0.2,0.1,0.6,0.2,0.6c0.7,0.2,1.3,0.4,2,0.5
			c3,0.7,6.1,1.3,9.1,2c1,0.3,1.9,0.6,2.9,1l1.7-2.4l0.2-0.3l1-1.3c0.4,0.6,0.7,1.1,1,1.8c1.9,3.7,3,7.8,3.3,11.9
			c0,0.2-0.3,0.5-0.5,0.7c-1.6-0.6-3.1-1.4-4.8-1.9c-3.1-1-6.3-1.9-9.5-2.9c-0.7-0.2-1.2-0.1-1.4,0.6s0.1,1.2,0.9,1.4
			c2.3,0.7,4.6,1.3,7,2c3.1,0.9,6.1,2.2,8.9,3.8c0.1,3.2-0.2,6.3-1,9.4c-0.4,1.5-0.8,2.9-1.2,4.3c-1.4-0.7-2.8-1.4-4.1-2.1
			c-4.7-2.6-9.7-4.5-15-5.4c-2.4-0.4-4.9-0.8-7.3-1c-7.4-0.7-14.8,0.1-21.8,2.3c-4,1.2-7.8,2.9-11.4,5c-0.4,0.2-0.9,0.4-1.3,0.6
			c-0.1-0.6-0.2-1.2-0.3-1.9c-0.6-1.8-1-3.7-1-5.6c2.1-1.3,4.3-2.4,6.6-3.3c1.4-0.6,2.9-1.2,4.3-1.8c0.6-0.3,1-0.7,0.7-1.4
			s-0.8-0.6-1.4-0.5c-0.4,0.1-0.7,0.2-1,0.4c-3.2,1.4-6.4,2.9-9.6,4.3c0-3.1-0.3-6.2,0.3-9.3c0.4-3,1.3-5.9,2.6-8.7
			C217.5,176.9,218.1,176.4,218.8,176.2z M247.4,182.9c-0.4,0-0.7-0.1-1-0.1c-5.4-0.1-10.7,0.6-15.9,2c-1.8,0.5-3.5,1-5.2,1.5
			c-1.1,0.3-1.4,0.8-1.2,1.5s0.6,0.8,1.7,0.5c1.5-0.5,2.9-1,4.4-1.4c5.2-1.3,10.5-2,15.9-2C247.7,184.9,247.8,184.7,247.4,182.9z
			 M247,188.9c0.2,0,0.5,0.1,0.8,0.1c3.5,0,6.9,0.3,10.4,0.9c1,0.2,2,0.3,3,0.5c0.6,0.1,1.1-0.2,1.1-0.8c0-0.4-0.4-0.8-0.7-1.1
			s-0.6-0.2-0.9-0.2c-1.1-0.2-2.1-0.2-3.2-0.5c-3.1-0.7-6.2-1-9.4-0.9C246.7,187,246.5,187.4,247,188.9L247,188.9z"/>
		<path class="st23" d="M218.8,176.2c-0.7,0.2-1.3,0.7-1.6,1.4c-1.3,2.8-2.1,5.7-2.6,8.7c-0.6,3.1-0.3,6.2-0.3,9.3
			c-0.1,0.1-0.1,0.2-0.2,0.2c-1.1,0.6-1.4,1-1.2,1.7s0.7,0.7,1.9,0.3c0,1.9,0.4,3.8,1,5.6c0.2,0.6,0.3,1.2,0.3,1.9
			c-2.5,1.8-5,3.6-7.5,5.5c-1.2,0.9-2.3,1.9-3.4,2.8c-0.5-0.7-0.9-1.5-1.2-2.2c-0.9-2.8-1.8-5.6-2.6-8.4c-0.3-0.7-0.3-1.6,0-2.3
			c0-0.1,0-0.2,0-0.3l0.3-0.3l0.3-0.3l0,0l0.3-0.2c0-0.1,0.1-0.1,0.2-0.1l0.4-0.3l1.9-1.4c1.2-0.9,2.5-1.7,3.7-2.5
			c0.5-0.4,1.1-0.6,1.7-0.9s0.9-1.2,0.6-1.6c-0.3-0.5-0.9-0.7-1.5-0.4l0,0c-0.5,0.3-1.1,0.5-1.6,0.9c-1.1,0.8-2.3,1.6-3.4,2.4
			c-0.1-1.2-0.3-2.3-0.4-3.5c0-0.9,0.2-1.7,0.2-2.5c0-2.8,0.4-5.6,1.1-8.4c1.2-4.6,3-9,5.4-13c0.3-0.7,1-1.1,1.8-1l0,0l0.2,0.3
			l0.4,0.5c0,0.4,0.1,0.8,0.6,0.8c0,0.2,0.1,0.4,0.1,0.6c0,0.1,0,0.2,0.1,0.3l3.8,5.3L218.8,176.2z"/>
		<path class="st24" d="M177.9,191.6l7.7,4.5c-0.5,0.1-0.9,0.7-0.8,1.2l0,0c0.3,2.2,0.5,4.3,0.9,6.5c0.3,1.8,0.8,3.6,1.2,5.5
			c0.2,0.7,0.5,1.1,1.3,1.1l-2.2,2.9c-0.2,0.3-0.5,0.6-0.6,0.9c0,0.4,0.1,0.8,0.4,1.1c0.1,0.1,0.7,0,1-0.1c0.3-0.2,0.5-0.4,0.7-0.6
			c0.1,0,0.2-0.1,0.2-0.2l0.1-0.1l0.2-0.3l1.5-1.8c1.2,3,2.3,6.1,3.6,9c0.7,1.5,1.3,3.3,2.9,4.3c-0.2,0.4-0.4,0.9-0.7,1.2
			s-0.6,0.5-1,0.6c-2.8,0-5.7,0-8.5,0c-0.2,0-0.4-0.1-0.6-0.2c0.8-1.2,1.5-2.4,2.2-3.5s1.5-2.2,2.3-3.3c0.3-0.4,0.5-0.9,0.7-1.4
			c0.1-0.4-0.1-0.8-0.4-1.1c-0.4-0.2-0.9-0.1-1.2,0.3c0,0,0,0,0,0.1c-1.2,1.9-2.5,3.7-3.8,5.6c-0.2,0.2-0.3,0.4-0.5,0.6
			c-0.7-1-1.3-2.1-1.8-3.2c-1.1-2.8-2.1-5.6-2.9-8.5c-1.1-3.7-1.9-7.4-2.2-11.3c-0.1-1.3-0.3-2.5-0.4-3.8c-0.1-1.8-0.2-3.5-0.3-5.3
			C176.9,191.7,177.3,191.6,177.9,191.6z"/>
		<path class="st5" d="M301,214.8l0.5,0.5v0.1l0.3,0.4l0.3,0.3l0,0c-0.1,0.7-0.2,1.4-0.4,2c-1.1,2.3-2.2,4.5-3.3,6.8
			c-0.3,0.6-0.9,1-1.6,0.8l-0.2-0.3l-0.2-0.3c-2.7-4-5.7-7.8-9.1-11.3c0.7,0.1,1.3-0.3,1.4-1c0.6-1.5,1.2-3,1.7-4.5
			c0.8-2.6,1.4-5.2,2.1-7.9c0.5,0.3,0.9,0.6,1.3,0.9c1.9,1.8,3.9,3.5,5.8,5.3c0.3,0.2,0.5,0.6,0.8,0.8c0.4,0.2,0.8,0.2,1.2,0.1
			c0.5-0.2,0.5-0.8,0.3-1.3c-0.2-0.4-0.5-0.7-0.8-1c-1.7-1.7-3.5-3.3-5.2-5c0.9-0.2,1-0.9,1.1-1.6c0.2-1.9,0.2-3.7,0.4-5.6l5.7,5
			l1.7-0.8c0.1,0.8,0.2,1.7,0.2,2.5c-0.1,1.2-0.3,2.4-0.6,3.6c-0.5,2.5-1.2,4.9-1.7,7.3c0,0.6-0.6,1.1-1.2,1c-0.1,0-0.2,0-0.2,0
			l-0.4-0.5c0-0.1-0.1-0.2-0.2-0.2h-0.1v-0.1c0-0.1-0.1-0.2-0.2-0.2h-0.1v-0.1c0-0.1-0.1-0.2-0.2-0.2l-0.3-0.2
			c-0.4-0.3-0.9-0.6-1.3-0.1s-0.4,1.2,0,1.6c0.3,0.4,0.7,0.8,1.1,1.2s0.6,0.7,0.9,1.1l0.3,0.3v0.1L301,214.8z"/>
		<path class="st25" d="M212.7,167c-0.8-0.1-1.5,0.3-1.8,1c-2.5,4-4.3,8.4-5.4,13c-0.8,2.7-1.1,5.5-1.1,8.4c0,0.8-0.2,1.7-0.2,2.5
			c0,1.2,0.2,2.3,0.4,3.5c-1,0.9-2.2,1.7-3.3,2.4c-1.2,0.7-2.3,1.6-3.3,2.6c-0.8,0.7-1.6,1.5-2.5,2.2c-0.6-0.1-1-0.6-1-1.2
			c-0.2-2.2-0.5-4.4-0.7-6.6l0.3-0.3l0.3-0.3l0,0l0.3-0.3l0.7-0.7l0.3-0.2l0.1-0.1l0.5-0.4l5.5-4.3c-1.6-5.8-3.3-11.7-5-17.6
			c4.4-2.8,9-5.1,13.8-7C211.2,164.7,212,165.9,212.7,167z"/>
		<path class="st23" d="M278.5,189.2c0.2-0.2,0.5-0.5,0.5-0.7c-0.3-4.1-1.4-8.2-3.3-11.9c-0.3-0.6-0.7-1.2-1-1.8
			c1.8-2.8,3.7-5.5,5.5-8.3c0.2-0.3,0.4-0.7,0.6-1c0.6,0.4,1.1,0.8,1.5,1.4c2.7,4.1,4.7,8.7,5.9,13.5c0.6,2.5,1.1,5,1.3,7.6
			c0.2,2.5,0,5.1,0,7.7l-0.3-0.2c0-0.1-0.1-0.1-0.2-0.2l-1-0.8l-0.7-0.2c-0.9-0.6-1.7-1.2-2.7-1.7
			C282.5,191.3,280.5,190.2,278.5,189.2z"/>
		<path class="st26" d="M177.9,191.6c-0.6,0-1,0.2-0.9,0.8c0.1,1.8,0.1,3.5,0.3,5.3c0.1,1.3,0.3,2.5,0.4,3.8
			c0.3,3.8,1.1,7.6,2.2,11.3c0.8,2.9,1.9,5.7,2.9,8.5c0.5,1.1,1.1,2.2,1.8,3.2c-0.5,0.8-1,1.7-1.6,2.5c-0.3,0.5-0.9,0.7-1.4,0.4
			c0,0-0.1,0-0.1-0.1c-0.2-0.1-0.4-0.1-0.6-0.1c-1.7,0.3-2.4-0.5-3-2c-0.8-2.2-1.9-4.3-2.8-6.4l1.6-3.1l-3.4-4.3
			c-0.4-2.3-0.7-4.6-1-7c-0.4-3.6-0.8-7.3-1.2-11l0.1-0.1l0.2-0.3l0,0l0.3-0.3l2.6-3.2C175.7,189.5,176.6,190.9,177.9,191.6z"/>
		<path class="st26" d="M312.4,192.8c1.5-1,3-1.9,4.6-2.8c0.6-0.5,1.5-0.5,2.1,0.1c0.1,0.1,0.1,0.1,0.1,0.2
			c-0.1,1.4-0.2,2.9-0.3,4.3c0,1.1,0.1,2.3,0,3.4c-0.4,2.9-0.8,5.8-1.2,8.7c-0.7,4.4-1.8,8.8-3.3,13c-0.6,1.5-1.2,3-1.9,4.4
			c-0.2,0.6-0.6,1-1.3,1l-4.4-6.5c1.3,0,1.4-1.3,1.7-2.1c0.9-2.6,1.6-5.2,2.2-7.9C311.9,203.5,312.5,198.2,312.4,192.8z"/>
		<path class="st25" d="M289.5,195.5c0-2.6,0.2-5.2,0-7.7s-0.6-5.1-1.3-7.6c-1.2-4.8-3.2-9.3-5.9-13.5c-0.4-0.5-0.9-1-1.5-1.4
			c0.3-0.4,0.6-0.9,0.9-1.3c0.2-0.2,0.3-0.4,0.5-0.5c4.7,1.9,9.2,4.2,13.5,6.9c-0.1,0.7-0.3,1.4-0.5,2.1c-1.4,4.9-2.8,9.9-4.2,14.8
			c-0.1,0.1-0.1,0.3-0.2,0.4v0.1l0.4,0.7l0.5,0.4h0.1l0.3,0.2l0,0l0.5,0.4h0.1l0.3,0.2l0,0l0.5,0.4h0.1v0.1l0.2,0.2l0.4,0.4l0.3,0.2
			l0.7,0.5c0,0.1,0.1,0.1,0.2,0.2l0.1,0.1l0.3,0.2l0.4,0.3l0.5,0.4h0.1v0.1l0.3,0.2l0,0c-0.1,1.9-0.2,3.7-0.4,5.6
			c-0.1,0.6-0.2,1.4-1.1,1.6L289.5,195.5z"/>
		<path class="st5" d="M196,225.4c-1.6-1-2.2-2.8-2.9-4.3c-1.4-2.9-2.4-6-3.6-9c0.2-0.3,0.4-0.6,0.6-0.9c1.8-1.9,3.5-3.9,5.4-5.7
			s3.8-3.3,5.7-4.9h0.4c-0.3,0.7-0.3,1.6,0,2.3c0.9,2.8,1.7,5.6,2.6,8.4c0.3,0.8,0.8,1.5,1.2,2.2c-0.4,0.6-0.8,1.2-1.3,1.8
			C201,218.4,198.3,221.8,196,225.4z"/>
		<path class="st10" d="M292.4,200.4c-0.7,2.6-1.3,5.3-2.1,7.9c-0.4,1.5-1.1,3-1.7,4.5c-0.1,0.7-0.8,1.1-1.4,1
			c-1.8-1.5-3.6-3.1-5.4-4.6c-1.1-0.9-2.3-1.6-3.4-2.4c-0.4-0.3-0.8-0.7-1.2-1c0.4-1.4,0.9-2.9,1.2-4.3c0.8-3.1,1.1-6.2,1-9.4
			c0.3,0.1,0.5,0.1,0.8,0.2c4.1,2.1,7.9,4.6,11.6,7.4C292,199.9,292.3,200.2,292.4,200.4z"/>
		<path class="st21" d="M311.1,225.1c0.7,0.1,1.1-0.4,1.3-1c0.6-1.5,1.3-2.9,1.9-4.4c1.5-4.2,2.6-8.6,3.3-13
			c0.5-2.9,0.9-5.8,1.2-8.7c0.1-1.1,0-2.2,0-3.4c0.1-1.4,0.2-2.9,0.3-4.3c2.8,3,5.3,6.2,7.5,9.5c0.4,0.6,0.7,1.2,1.2,1.9L316,215.3
			c0.6,1.1,1.3,2.3,1.8,3.5c1.1,2.3,2.2,4.6,3.2,7c0.3,0.9,1.1,1.4,2,1.4c2.2,0.1,4.5,0.3,6.7,0.5c-2.1-0.1-4.3-0.1-6.4-0.2
			c-2.7-0.1-5.4-0.1-8.2-0.1c-0.3-0.1-0.7-0.1-1-0.1C312.5,227.7,311.6,226.6,311.1,225.1z"/>
		<path class="st24" d="M312.4,192.8c0.2,5.4-0.4,10.7-1.8,15.9c-0.6,2.6-1.4,5.3-2.2,7.9c-0.3,0.8-0.3,2-1.7,2.1l-0.7-1.1
			c0-0.1-0.1-0.1-0.1-0.2l-4.6-5.5c0.6,0.2,1.2-0.2,1.4-0.8c0-0.1,0-0.2,0-0.2c0.6-2.4,1.2-4.9,1.7-7.3c0.3-1.2,0.5-2.4,0.6-3.6
			c0-0.8-0.1-1.7-0.2-2.5c0.2-0.2,0.5-0.4,0.7-0.6C307.7,195.5,310,194.2,312.4,192.8z"/>
		<path class="st5" d="M193.7,194.7c0.2,2.2,0.4,4.4,0.7,6.6c0,0.6,0.4,1.1,1,1.2c-0.5,0.5-1,1.1-1.5,1.6c-1.7,1.8-3.4,3.6-5.1,5.4
			l-0.2,0.3l-0.4,0.4c-0.8,0.1-1.2-0.3-1.3-1.1c-0.4-1.8-0.9-3.6-1.2-5.5c-0.4-2.1-0.6-4.3-0.9-6.5c-0.1-0.5,0.2-1.1,0.7-1.2l0,0
			l4,2.2C190.9,197.1,192.3,195.9,193.7,194.7z"/>
		<path class="st24" d="M296.7,225.7c0.7,0.1,1.3-0.2,1.6-0.8c1.1-2.3,2.3-4.5,3.3-6.8c0.2-0.6,0.3-1.3,0.4-2c1.1,1.4,2.3,2.6,3.3,4
			c1.6,2.2,3.1,4.5,4.7,6.9c-0.4,0.1-0.8,0.1-1.2,0.1c-3.2,0-6.4,0-9.6,0C298,227.4,297.1,227,296.7,225.7z"/>
		<path class="st21" d="M170.8,193.3c0.4,3.7,0.8,7.3,1.2,11c0.3,2.3,0.7,4.6,1,7c-1.2-1.3-2.4-2.6-3.6-3.9
			c-1.6-1.8-3.2-3.7-4.8-5.5C166.4,198.8,168.5,195.9,170.8,193.3z"/>
		<path class="st21" d="M174.9,218.6c1,2.1,2.1,4.2,2.8,6.4c0.6,1.6,1.3,2.3,3,2c0.2,0,0.4,0,0.6,0.1c-1.2,0-2.3,0.1-3.5,0.1
			c-1.9,0-3.8,0-5.7,0c-0.4,0-0.7-0.1-1.2-0.1C172,224.2,173.3,221.3,174.9,218.6z"/>
		<path class="st7" d="M213.9,184.9c-0.3,0.7-0.9,0.5-1.6,0.6l-0.7-1.3C212.4,183.9,213.4,184.2,213.9,184.9z"/>
		<path class="st25" d="M205.7,175.5c-0.5-0.1-0.6-0.4-0.6-0.8L205.7,175.5z"/>
		<path class="st5" d="M283.5,195.9l-0.5-0.4L283.5,195.9z"/>
		<path class="st5" d="M196.2,192.4l-0.5,0.4L196.2,192.4z"/>
		<path class="st5" d="M293.5,190.3l-0.5-0.4L293.5,190.3z"/>
		<path class="st5" d="M284.4,196.5l-0.5-0.4L284.4,196.5z"/>
		<path class="st5" d="M296.8,192.9l-0.5-0.4L296.8,192.9z"/>
		<path class="st24" d="M299.9,210.6c0.1,0,0.2,0.1,0.2,0.2L299.9,210.6z"/>
		<path class="st24" d="M300.2,210.9c0.1,0,0.2,0.1,0.2,0.2L300.2,210.9z"/>
		<path class="st5" d="M194.3,194.2l-0.3,0.3L194.3,194.2z"/>
		<path class="st25" d="M205.9,176.5c0-0.1-0.1-0.2-0.1-0.3c0,0.1,0.1,0.1,0.1,0.2C205.9,176.4,205.9,176.4,205.9,176.5z"/>
		<path class="st23" d="M265.5,183l-0.2,0.3L265.5,183z"/>
		<path class="st5" d="M194.7,193.8l-0.3,0.3L194.7,193.8z"/>
		<path class="st5" d="M297.2,193.2l-0.3-0.2L297.2,193.2z"/>
		<path class="st5" d="M195.6,192.9l-0.3,0.2L195.6,192.9z"/>
		<path class="st21" d="M171.1,192.9l-0.2,0.3L171.1,192.9z"/>
		<path class="st24" d="M300.6,211.2c0.1,0,0.2,0.1,0.2,0.2C300.7,211.4,300.6,211.3,300.6,211.2L300.6,211.2z"/>
		<path class="st21" d="M171.4,192.6l-0.3,0.3L171.4,192.6z"/>
		<path class="st5" d="M295.9,192.2l-0.3-0.2L295.9,192.2z"/>
		<polygon class="st5" points="282.5,194.8 282.6,194.7 282.6,194.8 		"/>
		<path class="st5" d="M295.5,191.9c-0.1,0-0.2-0.1-0.2-0.2C295.4,191.7,295.5,191.7,295.5,191.9
			C295.5,191.8,295.5,191.9,295.5,191.9z"/>
		<path class="st5" d="M294.6,191.2l-0.3-0.2L294.6,191.2z"/>
		<path class="st5" d="M293.9,190.6l-0.2-0.2L293.9,190.6z"/>
		<path class="st5" d="M284.8,196.8l-0.3-0.2L284.8,196.8z"/>
		<path class="st5" d="M283.9,196.2l-0.3-0.2L283.9,196.2z"/>
		<path class="st24" d="M300.7,214.5l-0.3-0.3L300.7,214.5z"/>
		<path class="st24" d="M301,214.8l-0.2-0.2L301,214.8z"/>
		<polygon class="st24" points="301.5,215.4 301.4,215.3 301.5,215.3 		"/>
		<path class="st24" d="M302,216.1l-0.3-0.3L302,216.1z"/>
		<path class="st26" d="M305.8,217.4c0.1,0,0.1,0.1,0.1,0.2C305.8,217.6,305.8,217.5,305.8,217.4z"/>
		<path class="st25" d="M204.8,174.2l-0.2-0.3L204.8,174.2z"/>
		<path class="st26" d="M201.8,199.9l0.3-0.3L201.8,199.9z"/>
		<path class="st26" d="M201.1,200.6l0.4-0.3c0,0.1,0,0.2,0,0.3H201.1z"/>
		<path class="st26" d="M202.1,199.6l0.3-0.2L202.1,199.6z"/>
		<path class="st26" d="M202.6,199.2l0.4-0.3L202.6,199.2z"/>
		<path class="st21" d="M187.6,214.1l0.2-0.3L187.6,214.1z"/>
		<path class="st21" d="M187.4,214.4c0-0.1,0.1-0.2,0.2-0.2C187.6,214.3,187.5,214.4,187.4,214.4z"/>
		<path class="st27" d="M287.9,194.3l-0.7-0.2L287.9,194.3z"/>
		<path class="st25" d="M289.1,195.2H289v-0.1C289,195.1,289.1,195.2,289.1,195.2z"/>
		<path class="st21" d="M188.7,209.6l-0.2,0.3L188.7,209.6z"/>
	</g>
	<g id="right">
		<path class="st8" d="M401.7,406.5c-2.5,1.8-5.1,3.5-7.5,5.5c-2.4,1.8-5.1,3.1-8.1,3.6c-0.9,0.2-1.8,0.6-2.7,0.8
			c-0.4,0-0.8,0-1.2-0.1c0.2-0.4,0.4-0.8,0.7-1.2c1.2-1.2,2.5-2.3,3.8-3.5c2-1.8,4-3.7,6.1-5.5c0.9-0.8,1.9-1.4,2.8-2.2
			c0.6-0.4,1.2-0.9,1.6-1.5c0.8-1.2,1.8-2.3,2.9-3.2c0.6,1.6,1,3.2,1.2,4.9c0,0,0,0.1,0.1,0.1C401.5,405.1,401.6,405.8,401.7,406.5z
			"/>
		<path class="st11" d="M461.3,324.8c0-0.1-0.1-0.3-0.1-0.4c0.7-1.9,1.3-3.7,2-5.5c0.1-0.3,0.3-0.5,0.5-0.8
			C463.2,320.5,462.9,322.9,461.3,324.8z"/>
		<path class="st11" d="M460.1,327.5c0.2-0.6,0.1-1.3,0.8-1.6L460.1,327.5z"/>
		<path class="st11" d="M459.2,329.5c0.2-0.5,0.5-0.9,0.7-1.4C459.6,328.6,459.4,329,459.2,329.5z"/>
		<path class="st12" d="M457.9,343.7l-0.7,0.5L457.9,343.7z"/>
		<path class="st11" d="M457.9,331.8c0.1-0.3,0.2-0.5,0.4-0.8C458.2,331.3,458,331.5,457.9,331.8z"/>
		<g>
			<path class="st10" d="M449.8,341.5l-0.5,0.5l-1.1,0.4c-0.7-2.9-1.4-5.9-2.1-8.8c-0.4-1.8-0.8-3.6-1.1-5.4l0.1-0.4l3-2.1l0.8-0.8
				l0.6-0.6l0.3-0.2l0.3-0.1l0.6-0.4l0.7-0.5c0.2,0,0.5,0,0.7-0.1c1.2-0.9,2.4-1.7,3.5-2.7c0.2-0.3,0.5-0.5,0.6-0.8l0.1-0.1
				c1.1-0.2,2-0.9,2.5-1.9l0.5-0.4l0.7-0.5l0.1-0.1h0.1c0.7,0,1.3-0.4,1.4-1.1l0.1-0.1c0.8-0.1,1.5-0.5,1.8-1.2
				c0-0.1,0.1-0.2,0.2-0.1h1.3l-0.2,0.7c-0.4,0.2-0.8,0.4-0.4,0.9l-0.4,1.3c-0.4,0.1-0.6,0.2-0.3,0.6c-0.1,0.2-0.1,0.5-0.2,0.7
				c-0.2,0.2-0.4,0.5-0.5,0.8c-0.7,1.8-1.3,3.7-2,5.5c0,0.1,0.1,0.3,0.1,0.4l-0.4,1c-0.7,0.3-0.6,1-0.8,1.6l-0.2,0.6
				c-0.2,0.5-0.5,0.9-0.7,1.4s-0.6,1-0.9,1.5c-0.1,0.3-0.2,0.5-0.4,0.8l-1.2,1.8c-0.5,0-0.8,0.5-0.8,0.9c0,0.1,0,0.1,0,0.2l-1.2,1.5
				l-0.5,0.6c-0.9,1.4-2,2.6-3.3,3.6c-0.5,0-0.9,0.5-0.9,0.9h0.2C449.9,341.3,449.8,341.4,449.8,341.5z"/>
			<path class="st11" d="M444.9,328.1c0.4,1.8,0.7,3.6,1.1,5.4c0.7,2.9,1.4,5.9,2.1,8.8c-0.1,0.2-0.2,0.5-0.4,0.8l-0.6,0.5
				c-0.5,0-0.9,0.3-1,0.8l-0.3,0.2l-0.7,0.5l-0.9,0.5c-0.5,0.2-1,0.3-1.5,0.5c-1,0.5-2,1.1-3.1,1.6c0-0.2,0-0.4,0-0.6
				c-1-3.9-2-7.7-3-11.6c-0.1-0.3-0.3-0.7-0.6-0.9v-0.5l0.3-0.2l0.7-0.5l0.2-0.2c0.9-0.1,1.6-0.6,2-1.4l1-0.8l0.6-0.5l0.3-0.2l1-0.7
				l0.3-0.3l0.6-0.4l0.3-0.2l0.6-0.5l0.1-0.1L444.9,328.1z"/>
			<path class="st12" d="M426.2,341.6l0.6-0.3c0.4-0.2,0.8-0.4,1.2-0.6s0.8-0.5,1.2-0.7c0.7,2.7,1.4,5.4,2,8.1
				c0.3,1.3,0.6,2.6,0.9,3.9c-1.6,0.8-3.3,1.3-4.5,2.7l-0.3,0.2c-1,0.3-2.1,0.4-2.6,1.5l-1,0.7H423c-0.8-3.1-1.6-6.2-2.4-9.3
				c-0.2-0.8-0.3-1.4,0.5-2c0.3-0.2,0.4-0.6,0.6-0.9c0-0.1,0.1-0.2,0.2-0.1c0.9,0.1,1.6-0.6,1.8-1.4l1.8-1.4l0,0l0.5-0.3
				C426.1,341.7,426.2,341.6,426.2,341.6z"/>
			<path class="st14" d="M432,352c-0.3-1.3-0.6-2.6-0.9-3.9c-0.7-2.7-1.3-5.4-2-8.1c0.5-0.4,1-0.8,1.5-1.2c0.9-0.8,1.9-1.7,2.8-2.5
				l1.2-0.9l0.7-0.5l0.1-0.1l0.9-0.4c0.2,0.3,0.4,0.6,0.6,0.9c1,3.9,2,7.7,3,11.6c0,0.2,0,0.4,0,0.6c-1.1,0.6-2.2,1.1-3.2,1.7
				c-1.3,0.8-2.6,1.6-3.9,2.4L432,352z"/>
			<path class="st16" d="M409.4,365.1c0-0.7,0.1-1.5,0.1-2.2c0-0.3,0-0.6,0-0.9c0.1-0.8,0.1-1.5,0.2-2.3h0.4
				c0.3,0.5,0.6,1.1,0.8,1.8c0.7,2.6,1.3,5.3,2,7.9l3.2,12.9c0.2,0.7,0.3,1.5,1.2,1.6c0.1,0.1,0.2,0.2,0.3,0.3s0,0.4,0,0.6
				s-0.4,0.4-0.4,0.6c-0.2,1.4-0.3,2.9-0.4,4.3s-0.6,2.8-1.3,4c-0.4-0.7-0.7-1.4-0.9-2.2c-1.5-6-2.9-12.1-4.5-18.1
				c-0.1-0.6-0.1-1.4-0.9-1.5L409,370l0.2-2.9C409.7,366.5,409.5,365.8,409.4,365.1z"/>
			<path class="st13" d="M445.5,369.8l-0.9,0.1l-1-0.2c-1.4-3.8-2.8-7.6-4.2-11.4c-0.6-1.3-1-2.7-1-4.2l0,0l0.4-0.3
				c0.1,0,0.2-0.1,0.3-0.1l0.4-0.3v-0.1c0.7,0,1.4-0.3,1.7-1l0.5-0.2l1.9-0.6c0.1,0.1,0.2,0.1,0.2,0.2c1.1,3,2.3,6.1,3.4,9.1
				c0.5,1.4,1.2,2.9,1.8,4.3c0.1,0.6,0.7,1,1.3,0.9l-1.8,1.4c-1.1,0.1-2.1,0.8-2.6,1.8c-0.1,0.1-0.1,0.2-0.2,0.3
				C445.6,369.7,445.6,369.7,445.5,369.8z"/>
			<path class="st13" d="M417.5,383.9c-1-0.1-1.1-0.9-1.2-1.6l-3.2-12.9c-0.6-2.6-1.3-5.3-2-7.9c-0.2-0.6-0.5-1.2-0.9-1.7
				c0-0.8-0.1-1.5-0.1-2.3l0.1-1.5c0.4-0.4,0.4-1.1,0.1-1.6c0-0.2,0-0.4,0-0.6l0.8-1l1.3-0.7c0,0.4,0.1,0.9,0.2,1.3
				c1,4,2.1,8,3.1,12.1c0.5,2.1,1,4.1,1.6,6.2c0.2,0.6,0.1,1.3,1,1.5C418,376.6,417.7,380.3,417.5,383.9z"/>
			<path class="st15" d="M409.2,372c0.9,0.2,0.8,1,0.9,1.5c1.7,6,3,12.1,4.5,18.1c0.2,0.8,0.5,1.5,0.9,2.2c0.7-1.2,1.2-2.6,1.3-4
				c0.1-1.4,0.2-2.9,0.4-4.3c0-0.2,0.3-0.4,0.4-0.6c0.2,3.7-0.5,7.3-1.9,10.7c-0.2,0.5-0.8,0.8-1.2,1.2l-0.7,0.6l-0.9,0.8
				c-1.2-0.3-1.1-1.4-1.3-2.2c-0.6-2.2-1.1-4.4-1.7-6.6c-0.3-1.4-0.6-2.8-1-4.2c-0.3-1-0.6-1.9-0.9-2.9c0-0.6-0.1-1.1-0.1-1.7
				c0.1-1.4,0.2-2.7,0.3-4.1c0.2-0.3,0.3-0.7,0.4-1.1C409,374.3,409,373.1,409.2,372z"/>
			<path class="st11" d="M457.9,343.7c0.9-0.5,1.8-0.9,2.6-1.4c1.6-0.9,3.4-1.2,4.8-2.5c0.1-0.1,0.4-0.1,0.8-0.2
				c-0.3,0.8-0.5,1.5-0.8,2.1c-1.6,3.8-3.3,7.7-4.9,11.5c-0.3,0.7-0.7,1.4-1.2,2.1c-0.3-0.4-0.6-0.9-0.8-1.3
				c-0.3-0.7-0.5-1.5-0.8-2.2c-0.8-2-1.6-3.9-2.4-5.8l1.6-1.5c0-0.1,0.1-0.2,0.2-0.2l0,0L457.9,343.7z"/>
			<path class="st17" d="M450.5,347.5l0.2-0.1l1-0.5c0.1,0,0.2,0,0.2,0.1c0.3,0.8,0.5,1.5,0.8,2.3l3.3,8.5c0.2,0.5,0.4,1,1,1.1
				l-2.1,2.8l-0.6,0.7l-1,1.2c-0.5-0.5-0.9-1.1-1.3-1.8c-0.7-1.7-1.3-3.5-2-5.2c-0.8-2-1.6-4-2.3-6c-0.1-0.5-0.6-0.9-1.1-0.8l0,0
				l0.5-0.6h0.6c0.5,0.4,0.6,0,0.7-0.3l0,0c0.5-0.1,1.1,0.1,1.3-0.6L450.5,347.5z"/>
			<path class="st17" d="M421.8,345c-0.2,0.3-0.3,0.7-0.6,0.9c-0.8,0.5-0.8,1.1-0.5,2c0.8,3.1,1.6,6.2,2.4,9.3l-0.4,0.8l-0.1,0.1
				c-1.4,0.8-2.3,2.1-2.4,3.7c-0.2,0.4-0.3,0.8-0.5,1.2c-0.5,0.1-1-0.2-1.1-0.7c-0.2-0.5-0.3-1-0.5-1.5c-0.9-3.3-1.7-6.7-2.5-10
				c-0.1-0.4-0.1-0.9-0.7-0.9c0-0.1,0-0.1,0-0.1l6.4-4.5C421.5,345,421.6,345,421.8,345z"/>
			<path class="st19" d="M415,349.7c0.6,0,0.6,0.5,0.7,0.9c0.8,3.3,1.7,6.7,2.5,10c0.1,0.5,0.3,1,0.5,1.5c0.1,0.5,0.6,0.8,1.1,0.7
				c0,0.3,0,0.6-0.1,0.9c-0.7,0.3-0.5,1-0.5,1.5c-0.3,2.5-0.6,5-0.9,7.6c-0.9-0.1-0.8-0.9-1-1.5c-0.6-2.1-1-4.1-1.6-6.2
				c-1-4-2.1-8-3.1-12.1c-0.1-0.4-0.1-0.8-0.2-1.3L415,349.7z"/>
			<path class="st19" d="M446.5,349.7c0.5-0.1,1.1,0.3,1.2,0.8l0,0c0.7,2,1.5,4,2.3,6c0.7,1.8,1.3,3.5,2,5.2
				c0.4,0.6,0.8,1.2,1.3,1.8l-1.2,1.1l-0.6,0.6l0,0c-0.5,0-0.9,0.4-1,0.9l-0.1,0.1c-0.6,0.1-1.2-0.3-1.3-0.9
				c-0.6-1.4-1.2-2.9-1.8-4.3c-1.1-3-2.3-6.1-3.4-9.1c0-0.1-0.1-0.1-0.2-0.2l0.2-0.5l0.5-0.2c0.8-0.1,1.5-0.3,1.7-1.1L446.5,349.7z"
				/>
			<path class="st20" d="M443.7,369.8l1,0.2c-1.5,0.8-3,1.6-4.5,2.2s-3.4,1.2-5.1,1.8c-0.3-0.4-0.5-0.8-0.7-1.2
				c-0.7-1.9-1.4-3.8-2.1-5.7s-1.4-3.5-2.1-5.2c-0.4-0.9-0.6-1.9-0.6-2.9l0.6-0.3c0.5,0.1,0.7-0.1,0.8-0.5l2.6-1.2
				c-0.9,1.3-0.9,1.3-0.4,3.2c0.1,0.3,0.1,0.6,0.2,0.9l4,10.3c0.4,1,0.7,1.2,1.7,0.8c0.7-0.3,1.3-0.7,1.9-1.1
				C441.9,370.9,442.8,370.4,443.7,369.8z"/>
			<path class="st15" d="M440.8,371c-0.6,0.4-1.3,0.8-1.9,1.1c-0.9,0.4-1.3,0.2-1.7-0.8l-4-10.3c-0.1-0.3-0.1-0.6-0.2-0.9
				c-0.5-1.9-0.5-1.9,0.4-3.2l0.5-0.1l1.1-0.2c0.3,0.6,0.7,1.3,1,1.9c0.5,1.1,0.9,2.2,1.3,3.3C438.4,364.8,439.6,367.9,440.8,371z"
				/>
			<path class="st16" d="M440.8,371c-1.2-3.1-2.3-6.2-3.5-9.3c-0.4-1.1-0.8-2.2-1.3-3.3c-0.3-0.7-0.7-1.3-1-1.9c0-0.5,0.4-0.9,0.9-1
				c0.3-0.1,0.5-0.3,0.8-0.5l1.9-0.8c0,1.4,0.4,2.9,1,4.2c1.4,3.8,2.8,7.6,4.2,11.4C442.9,370.4,441.8,370.9,440.8,371z"/>
			<path class="st5" d="M442.5,375.8l2.1-1c0.3,0,0.5-0.1,0.8-0.2c1.6-0.7,3.1-1.3,4.7-2c0.4-0.2,0.8-0.4,1.1,0.1
				c-1.9,3.8-3.8,7.6-5.7,11.5c-0.1,0.2-0.3,0.4-0.5,0.6c-0.1-0.7-0.2-1.3-0.4-2c-0.7-2.1-1.5-4.3-2.3-6.4L442.5,375.8z"/>
			<path class="st18" d="M401.7,406.5c-0.1-0.7-0.2-1.4-0.3-2l-0.1-0.1c-0.2-1.7-0.6-3.3-1.2-4.9c0,0,0-0.1,0.1-0.1
				c1.7-1.5,3.2-3.1,4.6-4.9c0.1-0.1,0.3-0.1,0.4-0.2c0.5,2.1,1,4.2,1.5,6.4c0.2,0.6,0.3,1.4,1.2,1.5c-0.4,0.4-0.8,0.8-1.3,1.2
				C405,404.3,403.4,405.5,401.7,406.5z"/>
			<path class="st20" d="M408.2,382.3c0.3,1,0.6,1.9,0.9,2.9c0.4,1.4,0.6,2.8,1,4.2c0.5,2.2,1,4.5,1.7,6.6c0.2,0.8,0.2,1.9,1.3,2.2
				l-3,2.2c-0.4-0.4-0.8-1-1-1.5c-0.6-2.1-1-4.2-1.6-6.3c-0.1-0.6-0.2-1.2-1-1.3c0.2-0.7,0.3-1.5,0.5-2.2c0.3-0.1,0.6-0.3,0.2-0.7
				c0-0.2,0-0.4,0.1-0.6c0.8-0.6,0.6-1.2,0.2-2c0.1-1.2,0.2-2.4,0.3-3.6L408.2,382.3z"/>
			<path class="st7" d="M429.4,359c0,1,0.2,2,0.6,2.9c0.8,1.7,1.5,3.4,2.1,5.2s1.4,3.8,2.1,5.7c0.2,0.4,0.4,0.8,0.7,1.2l-1.6,0.6
				l-1,0.6H432c-1.3-3.1-2.6-6.2-3.8-9.4c-0.6-1.5-1-3-1.4-4.6C427.3,360.1,428.3,359.3,429.4,359z"/>
			<path class="st12" d="M457.1,358.8c-0.7,0-0.8-0.6-1-1.1l-3.3-8.5c-0.3-0.8-0.5-1.5-0.8-2.3l5-2.6l-1.6,1.5
				c0.8,1.9,1.6,3.8,2.4,5.8c0.3,0.7,0.5,1.5,0.8,2.2c0.2,0.5,0.5,0.9,0.8,1.3C459,356.8,457.9,357.7,457.1,358.8z"/>
			<path class="st14" d="M442.3,376.3c0.8,2.1,1.5,4.3,2.3,6.4c0.2,0.7,0.3,1.3,0.4,2l-0.7,0.8H444v0.1c0,0.1-0.1,0.1-0.1,0.1
				l-0.5,0.5l-0.7,0.5l-0.9,0.1c-0.5-1.4-0.9-2.7-1.3-4.1c-0.5-1.7-1.7-3.2-1.6-5.1L442.3,376.3z"/>
			<path class="st8" d="M427.9,376.8c-1.5,1-3.2,1.8-4.9,2.3c-0.4-1.1-0.5-2.2-0.2-3.4c0.2-2.5,0.6-5,0.9-7.6
				c0.1-0.3,0.2-0.5,0.3-0.7c0.3,0.3,0.5,0.6,0.7,1C425.8,371.2,426.8,374,427.9,376.8z"/>
			<path class="st28" d="M427.9,376.8c-1.1-2.8-2.1-5.6-3.2-8.4c-0.2-0.4-0.4-0.7-0.7-1c-0.2-1.3,0.5-2.5,0.8-3.7
				c0.1-0.2,0.5-0.3,0.8-0.5c1.4,3.7,2.7,7.3,4.1,11c0.3,0.7,0.4,1.5,0.1,2.3L427.9,376.8z"/>
			<path class="st13" d="M441.7,386.9l0.9-0.1c-0.6,0.5-1.2,1-1.9,1.3c-1.8,0.6-3.6,1.1-5.5,1.6c-0.5-0.4-1.2-0.6-1.4-1.1
				c-1-2.4-1.9-4.9-2.8-7.4l0.7-0.8l1.7-0.7c0.1,0.1,0.1,0.2,0.2,0.2c0.2,0.8,0.4,1.6,0.6,2.5c0.6,1.7,1.2,3.3,1.8,5
				c0.5,1.3,1,1.5,2.3,0.9c0.1-0.1,0.3-0.2,0.4-0.3C439.9,388.2,441,387.8,441.7,386.9z"/>
			<path class="st8" d="M426.9,392.3c-0.8,1-2,1.2-3.1,1.6c-0.7,0.3-1.4,0.9-2.5,0.4c0.2-2.9,0.8-5.6,2.9-7.8L426.9,392.3z"/>
			<path class="st7" d="M406.6,391.3c0.7,0.1,0.8,0.7,1,1.3c0.5,2.1,1,4.2,1.6,6.3c0.3,0.6,0.6,1.1,1,1.5L408,402
				c-0.9-0.1-1-0.8-1.2-1.5c-0.5-2.1-1-4.2-1.5-6.4L406.6,391.3z"/>
			<path class="st18" d="M429.8,376.5c0.3-0.8,0.2-1.6-0.1-2.3c-1.4-3.6-2.8-7.3-4.1-11c0-0.9,0.2-1.7,1.3-2
				c0.5,1.5,0.8,3.1,1.4,4.6c1.2,3.1,2.5,6.2,3.8,9.4L429.8,376.5z"/>
			<path class="st15" d="M427.9,382.7l2.2-1.4c-0.2,0.8-0.2,1.7,0.1,2.5c0.6,1.5,1,3.1,1.8,4.6c0.3,0.6,0.1,1.6,1.1,1.8l-1.1,1
				l-0.9,0.1c-1.2-1.4-1.5-3.3-2.2-4.9C428.5,385.2,428.1,383.9,427.9,382.7z"/>
			<path class="st18" d="M426.9,392.3l-2.6-5.8c0.3-1,1-1.8,1.9-2.2c0,0.3,0.1,0.6,0.2,0.9c0.9,2.3,1.8,4.5,2.7,6.8
				C428.5,392.6,427.6,392.2,426.9,392.3z"/>
			<path class="st7" d="M429.1,391.9c-0.9-2.2-1.8-4.5-2.7-6.8c-0.1-0.3-0.1-0.6-0.2-0.9c0.2-0.9,0.9-1.3,1.7-1.5
				c0.2,1.2,0.6,2.5,1,3.6c0.7,1.6,0.9,3.5,2.2,4.9L429.1,391.9z"/>
			<path class="st16" d="M433.1,390.1c-1-0.2-0.9-1.2-1.1-1.8c-0.7-1.5-1.1-3.1-1.8-4.6c-0.3-0.8-0.4-1.7-0.1-2.5l0,0h1
				c0.9,2.5,1.8,5,2.8,7.4c0.2,0.5,0.9,0.7,1.4,1.1L435,390L433.1,390.1z"/>
			<path class="st15" d="M418.2,373c0.3-2.5,0.6-5,0.9-7.6c0.1-0.5-0.2-1.2,0.5-1.5c-0.1,2-0.2,3.9-0.4,5.9
				c-0.4,4.5-0.8,8.9-1.3,13.4c-0.1,0.4-0.2,0.7-0.3,1c-0.1-0.1-0.2-0.2-0.3-0.3C417.7,380.3,418,376.6,418.2,373z"/>
			<path class="st21" d="M432.7,351.8c1.3-0.8,2.6-1.6,3.9-2.4c1-0.6,2.2-1.1,3.2-1.7s2-1.1,3.1-1.6c0.5-0.2,1-0.4,1.5-0.5
				c-1.6,1-3.1,1.9-4.8,2.9c-2.3,1.3-4.6,2.5-6.9,3.7C432.7,352,432.7,351.9,432.7,351.8z"/>
			<path class="st13" d="M442.3,376.3l-3.5,1.4l-2.8,1.4l-2.3,0.9c-0.1-0.1-0.2-0.2-0.2-0.2c2.9-1.6,5.9-3,9-4L442.3,376.3z"/>
			<path class="st17" d="M433.4,336.3c-0.9,0.8-1.9,1.7-2.8,2.5c-0.5,0.4-1,0.8-1.5,1.2c-0.4,0.2-0.8,0.5-1.2,0.7s-0.8,0.4-1.2,0.6
				c0.3-0.3,0.5-0.6,0.9-0.9c1.6-1.2,3.3-2.4,4.9-3.6C432.8,336.6,433.1,336.4,433.4,336.3z"/>
			<path class="st21" d="M451.2,372.8c-0.3-0.5-0.7-0.2-1.1-0.1c-1.6,0.7-3.1,1.4-4.7,2c-0.2,0.1-0.5,0.1-0.8,0.2
				c0.1-0.2,0.2-0.5,0.4-0.6c2.1-0.9,4.2-1.7,6.3-2.6c0,0,0.1,0,0.2,0.1C451.7,372.1,451.5,372.5,451.2,372.8z"/>
			<path class="st11" d="M456.3,319.5c-0.2,0.3-0.4,0.6-0.6,0.8c-1.1,0.9-2.3,1.8-3.5,2.7c-0.2,0.1-0.5,0-0.7,0.1
				C452.8,321.6,454.5,320.4,456.3,319.5z"/>
			<path class="st20" d="M409.2,372c-0.1,1.1-0.2,2.3-0.4,3.5c-0.1,0.4-0.2,0.7-0.4,1.1c-0.2-2.2,0-4.3,0.6-6.4
				C409,370.7,409.1,371.3,409.2,372z"/>
			<path class="st13" d="M432.7,351.8c0,0.1,0,0.2,0,0.3l-5.2,2.6c1.2-1.4,3-1.9,4.5-2.7L432.7,351.8z"/>
			<path class="st16" d="M420.2,361.8c0.1-1.6,1-2.9,2.4-3.7L420.2,361.8z"/>
			<path class="st20" d="M450.5,347.5l-1,0.7l-1.3,0.6l0,0l-0.7,0.3h-0.6C447.6,347.8,449,347.2,450.5,347.5z"/>
			<path class="st7" d="M433.1,390.1h1.9c-0.8,0.7-1.9,1-3,1L433.1,390.1z"/>
			<path class="st15" d="M445.9,369.3c0.5-1,1.5-1.7,2.6-1.8C447.9,368.4,446.9,369,445.9,369.3z"/>
			<path class="st20" d="M436.6,355c-0.2,0.2-0.5,0.4-0.8,0.5c-0.5,0.1-0.9,0.5-0.9,1l-1.1,0.2C434.3,355.6,435.4,354.9,436.6,355z"
				/>
			<path class="st16" d="M424.6,356.5c0.5-1.1,1.6-1.2,2.6-1.5L424.6,356.5z"/>
			<path class="st20" d="M410,357.4c0,0.8,0.1,1.5,0.1,2.3h-0.4C409.5,358.9,409.2,358.1,410,357.4z"/>
			<path class="st17" d="M439.5,331.8c-0.4,0.8-1.1,1.3-2,1.4L439.5,331.8z"/>
			<path class="st17" d="M423.7,343.5c-0.1,0.9-0.9,1.5-1.8,1.4L423.7,343.5z"/>
			<path class="st20" d="M443.8,351.2l-0.2,0.5l-1.9,0.6C442.1,351.5,442.9,351.1,443.8,351.2z"/>
			<path class="st7" d="M407.6,385.9c0.4,0.7,0.5,1.4-0.2,2C407.4,387.2,407.5,386.5,407.6,385.9z"/>
			<path class="st20" d="M409.4,365.1c0.1,0.7,0.3,1.4-0.2,2C408.7,366.5,408.8,365.6,409.4,365.1z"/>
			<path class="st20" d="M446,349.8c-0.2,0.9-1,1-1.7,1.1L446,349.8z"/>
			<path class="st21" d="M447.8,343.1c0.1-0.2,0.2-0.5,0.4-0.8l1.1-0.4L447.8,343.1z"/>
			<path class="st15" d="M431.1,381.3h-1c0.4-0.7,1.1-0.7,1.7-0.8L431.1,381.3z"/>
			<path class="st20" d="M441.2,352.5c-0.3,0.7-1,1-1.7,1C439.8,352.8,440.4,352.4,441.2,352.5z"/>
			<path class="st7" d="M408.2,382.3h-0.4c-0.4-0.6-0.5-1.2,0.3-1.7C408.1,381.2,408.2,381.7,408.2,382.3z"/>
			<path class="st20" d="M410.2,354.2c0.3,0.5,0.3,1.1-0.1,1.6C409.7,355.4,409.8,354.7,410.2,354.2z"/>
			<path class="st13" d="M450.4,366.1c0.1-0.5,0.5-0.9,1-0.9C451.3,365.7,450.9,366.1,450.4,366.1z"/>
			<path class="st17" d="M442.4,329.7l-1,0.7L442.4,329.7z"/>
			<path class="st16" d="M422.6,358l0.4-0.8h0.6L422.6,358z"/>
			<path class="st11" d="M450.1,341.3c0-0.5,0.4-0.9,0.9-0.9C450.9,340.8,450.8,341.3,450.1,341.3z"/>
			<path class="st21" d="M446.2,344.4c0.1-0.5,0.5-0.9,1-0.8L446.2,344.4z"/>
			<path class="st20" d="M411.1,352.6l-0.8,1C410.2,353,410.4,352.7,411.1,352.6z"/>
			<path class="st11" d="M456,334.7c-0.2-0.4,0.1-0.9,0.5-1.1c0.1,0,0.1,0,0.2,0L456,334.7z"/>
			<path class="st17" d="M436.3,334.6l-0.9,0.4l0.9-0.8V334.6z"/>
			<path class="st17" d="M448.9,324.8l-0.8,0.8C448.1,325.1,448.3,324.8,448.9,324.8z"/>
			<path class="st20" d="M409.6,362c0,0.3,0,0.6,0,0.9C409.2,362.6,409.2,362.3,409.6,362z"/>
			<path class="st18" d="M432.4,375.2l1-0.6C433.3,375.2,432.8,375.2,432.4,375.2z"/>
			<path class="st20" d="M451.7,346.9l-1,0.5C450.9,346.8,451.3,346.8,451.7,346.9z"/>
			<path class="st13" d="M454.3,362.3l0.6-0.7L454.3,362.3z"/>
			<path class="st17" d="M444.9,328.1h-0.5l0.6-0.5L444.9,328.1z"/>
			<path class="st17" d="M435.3,335l-0.7,0.5L435.3,335z"/>
			<path class="st17" d="M437.2,333.5l-0.7,0.5L437.2,333.5z"/>
			<path class="st21" d="M445.2,345l0.7-0.5L445.2,345z"/>
			<path class="st13" d="M443.4,386.3l0.5-0.5L443.4,386.3z"/>
			<path class="st17" d="M441.1,330.5l-0.6,0.5L441.1,330.5z"/>
			<path class="st13" d="M451.4,365.2l0.6-0.6L451.4,365.2z"/>
			<path class="st17" d="M444.3,328.2l-0.6,0.5L444.3,328.2z"/>
			<path class="st17" d="M443.4,329l-0.6,0.4L443.4,329z"/>
			<path class="st11" d="M454.3,336.8l0.5-0.6L454.3,336.8z"/>
			<path class="st20" d="M414,397.5l0.7-0.6L414,397.5z"/>
			<path class="st17" d="M450.7,323.6l-0.6,0.4L450.7,323.6z"/>
			<path class="st17" d="M426.2,341.6c0,0.1-0.1,0.1-0.2,0.1v-0.1H426.2z"/>
			<path class="st11" d="M449.8,341.5c0-0.1,0.1-0.1,0.2-0.1L449.8,341.5z"/>
			<polygon class="st17" points="425.5,342 425.5,342 425.5,341.9 			"/>
			<path class="st13" d="M444,385.7v-0.1h0.1L444,385.7z"/>
			<path class="st17" d="M449.8,324l-0.3,0.2L449.8,324z"/>
			<path class="st16" d="M439.5,353.6l-0.4,0.3L439.5,353.6z"/>
			<path class="st16" d="M438.8,353.9l-0.4,0.3L438.8,353.9z"/>
			<path class="st20" d="M447.2,411.2c0-0.1,0.1-0.1,0.1-0.1L447.2,411.2z"/>
			<path class="st13" d="M448.2,348.8l1.3-0.6C449.3,348.9,448.7,348.7,448.2,348.8z"/>
			<path class="st29" d="M447.5,349.1l0.7-0.3C448.1,349.2,448,349.5,447.5,349.1z"/>
			<path class="st12" d="M436,379.1l2.9-1.4c-0.1,1.9,1.1,3.4,1.6,5.1c0.4,1.4,0.9,2.7,1.3,4.1c-0.8,0.8-1.8,1.2-2.9,1.2
				c-0.1-0.6-0.2-1.1-0.4-1.7c-0.8-2.1-1.6-4.1-2.4-6.2C436,379.9,436,379.5,436,379.1z"/>
			<path class="st17" d="M436,379.1c0,0.4,0,0.7,0.1,1.1c0.8,2.1,1.6,4.1,2.4,6.2c0.2,0.5,0.3,1.1,0.4,1.7c-0.1,0.1-0.2,0.2-0.4,0.3
				c-1.3,0.6-1.8,0.4-2.3-0.9c-0.6-1.6-1.2-3.3-1.8-5c-0.3-0.8-0.4-1.6-0.6-2.5L436,379.1z"/>
		</g>
	</g>
	<g id="heli">
		<path class="st2" d="M329.6,246.6c7.4,0.3,14.8,1.3,22,3c1.9,0.5,3.8,1.2,5.7,1.8c2.2,0.8,4.2,1.9,6,3.3c4.2,3.1,5.1,7.9,2.3,12.4
			c-1.3,2-2.9,3.7-4.8,5.2c-2.7,2.1-5.4,4.3-8.8,5.3c-2.3,1.8-5.1,2.4-7.7,3.4c-2.7,1-5.4,1.8-8.2,2.4c-5.7,1.5-11.5,2.5-17.3,3
			c-6.3,0.5-12.6,0.5-18.8,0c-2.1-0.1-4.2-0.3-6.3-0.3c-1,0.1-1.9,0.3-2.8,0.7c-1.8,0.7-3.5,1.6-5.3,2.4c-3.3,1.4-6.7,2.9-10,4.3
			c-1.7,0.7-3.5,1.2-5.3,1.9l-2-5.9c1.5-0.9,3-1.8,4.6-2.8c1.7-0.8,3.3-1.8,4.8-3c-1.4-0.8-3-1.3-4.7-1.5c-1.8-0.1-3.5-0.8-4.8-2
			c0.6,0.1,1,0.2,1.3,0.3c2.7,0.6,5.4,1.3,8.1,1.9c0.6,0.1,1.3,0,1.9-0.1c0.8-0.2,1.5-0.8,1.7-1.6l-2.4-0.2c-3.9-0.2-7.8-0.9-11.6-2
			c-2.4-0.8-4.7-1.8-6.9-2.9c-1.6-0.8-2.9-2.1-3.7-3.8c-1.3-2.6-0.5-5.1,1.2-7.2c2-2.5,4.4-4.5,7.2-6.1c3.5-1.9,7.2-3.6,11-4.9
			c5.3-2,10.8-2.8,16.3-3.6c5-0.8,10.1-1.2,15.2-1.2c7.6-0.1,15.1,0.5,22.6,1.7c1.8,0.3,3.6,0.6,5.4,1c1.4,0.3,2.6,0.9,3.7,1.8
			c-0.4,0.4-1,0.4-1.5,0.2c-1.4-0.7-2.9-1-4.5-1.1c-2.3-0.2-4.7-0.7-7-1c-6.9-0.9-13.8-0.9-20.7-0.2c-3.7,0.4-7.4,0.8-11,1.5
			s-7.1,1.6-10.5,2.8c-3.8,1.4-7.5,3.1-11,5.2c-2.2,1.3-4,3.1-5.4,5.2c-1.7,2.5-1.1,6,1.4,7.8c2.3,2,5.1,3.3,8.1,3.8
			c1.4,0.3,2.8,0.7,4.2,1.2c1.6,0.5,3.3,0,4.3-1.2c1.6-1.7,3.4-3.3,5.1-5c0.8-0.8,1.6-1.7,2.4-2.6l1.8,1.1c2.8-2.1,6.2-3.2,9.6-3.2
			c2.3-0.1,4.6,0,6.9,0.3c2.2,0.4,4.3,1,6.4,1.7c1.3,0.4,2.3,1.3,2.7,2.6c0.4,0.7,0.2,1.7-0.5,2.1c-1,0.7-2.2,1.3-3.4,1.8
			c-2.6,0.9-5.5,1.3-8.2,1c-0.9-0.1-1.9,0.2-2.6,0.8c-2.2,2-4.7,3.7-7.5,4.9c-0.6,0.3-1.1,0.6-1.5,1l0.1,0.3c0.3,0.1,0.7,0.2,1,0.2
			c4.3,0.1,8.7-0.2,13-0.8c4.5-0.7,8.9-1.2,13.4-1.9c0.3,0,0.6-0.1,0.9-0.2c3.6-1.1,7.3-2.1,10.9-3.5c3.5-1.2,6.8-2.9,9.8-5.1
			c1.5-1.2,3.2-2.2,4.7-3.4c1.8-1.4,3.2-3.2,4-5.4c1.2-2.6,0.6-5.7-1.4-7.7c-3-3.1-6.8-5.3-11-6.2c-6.3-1.6-12.7-2.6-19.2-3
			c-2.3-0.2-4.6-0.1-6.9-0.2c-0.6,0-1.1-0.2-0.9-1c2.7,0.1,5.4,0.1,8.2,0.1C325.3,246.5,327.5,246.5,329.6,246.6z"/>
		<path class="st2" d="M152.9,276.9c3.5,1.7,7.4,2.2,11,3.4c4.7,1.4,9.6,2.5,14.5,3.1c4.9,0.7,9.8,1,14.7,1c0.4-0.1,0.8-0.1,1.2-0.2
			c-0.4-0.4-0.8-0.7-1.2-1.1c-1.1-0.8-2.3-1.6-3.5-2.2c-0.5-0.3-1.1-0.4-1.7-0.4c-2.4-0.2-4.7-0.1-7.1-0.4c-2.5-0.2-5-1.1-7-2.7
			c-0.2-0.2-0.4-0.4-0.6-0.6c-1.1-1.3-0.9-2.8,0.6-3.5c5.5-3,12-3.5,17.9-1.5c0.3,0.1,0.5,0.1,0.8,0.2c1.8,0.5,3.8,0.7,5.3,2.4
			c0.7-0.5,1.4-0.9,2.1-1.3c1-0.7,1.3-0.7,2.3,0.1c1.7,1.5,3.4,3,5.1,4.5c1.4,1.2,2.8,2.3,4.2,3.4c1,0.7,2.3,0.7,3.4,0.1
			c2.1-0.7,4.2-1.6,6.2-2.6c1.9-1,3.5-2.4,4.8-4.2c1.6-2.6,1.2-5.1-0.8-7.5c-1.5-1.8-3.5-2.8-5.5-3.9c-2.5-1.3-5.2-2.3-8-3
			c-4.6-1.4-9.3-2.4-14.1-3.2c-6.9-1.2-13.9-1.7-20.9-1.5c-2.9,0-5.8,0.2-8.7,0.6c-4.4,0.7-8.9,1.5-13.2,2.6
			c-4.1,1.1-8,2.9-11.4,5.4c-1.9,1.3-3.4,3-4.4,5c-1.3,2.7-0.8,5.1,0.8,7.4c1.5,2.1,3.3,3.8,5.5,5.1c2.5,1.5,5.1,2.8,7.7,3.9
			c6.2,2.3,12.6,4,19.1,5c1,0.1,1.9,0.6,2.5,1.3c-0.3,0.1-0.5,0.1-0.8,0.1c-2.1-0.3-4.2-0.5-6.3-1c-5.6-1.2-11.2-2.1-16.6-3.9
			c-2.6-0.9-5.4-1.4-8-2.3c-4.2-1.4-8.1-3.5-11.6-6.1c-1.5-1.2-2.8-2.7-3.8-4.3c-2-3.5-1.5-6.7,0.9-9.7c1.4-1.8,3.1-3.3,5.1-4.5
			c5.6-3.2,11.8-5.5,18.2-6.6c9.5-1.9,19.1-2,28.7-1.3c6.5,0.6,13,1.7,19.4,3.2c2.4,0.6,4.9,1.2,7.3,1.8c1.5,0.3,3.1,0.4,4.6,0.8
			c3.4,0.8,6.7,1.7,10.1,2.7c2.1,0.7,4.2,1.5,6.3,2.4c2.4,1.1,4.6,2.5,6.6,4.3c1.6,1.3,2.6,3.1,2.8,5.1c0.2,1.3-0.1,2.7-0.9,3.8
			c-0.9,1.2-1.9,2.3-3.1,3.3c-1.7,1.4-3.7,2.5-5.9,3.2c-2.3,0.8-4.6,1.5-6.9,2.3c-0.5,0.2-1.1,0.4-1.9,0.8l8,3.8l-1.9,5.8
			c-0.3-0.2-0.7-0.3-1-0.5c-4-1.2-8-2.4-12-3.7c-2.1-0.7-4.2-1.5-6.3-2.4s-4.3-1.3-6.6-1.4c-0.5,0-1-0.1-1.4-0.1
			c-7.9-0.2-15.8-1.2-23.6-3c-3.9-0.8-7.8-1.8-11.7-3c-3.4-1.1-6.9-2.1-9.9-4.2L152.9,276.9z"/>
		<path class="st2" d="M246.6,287.7c-0.2-0.4-0.6-1.1-1-1.7c-0.6-1.1-0.4-1.5,0.9-1.6l1.1-0.1c-0.6-1.2-1-2.2-2.4-2.7
			c-1.4-0.7-2.1-2.4-1.4-3.8c0.6-1.3,2-1.9,3.4-1.5c1.4,0.5,2.2,2.1,1.7,3.6l-0.1,0.3c-0.2,0.5-0.5,0.9-0.8,1.3
			c0.5,0.9,1.1,1.8,1.6,2.7c0.8,1.4,0.6,1.7-1,1.8h-0.7c0.3,1.1,1.1,2,2.1,2.4c1.2,0.5,2.1,1.5,2.5,2.7c1.8,0,3.5,0.1,5.2,0
			c5.5-0.2,10.4,3.3,11.9,8.6c0.2,0.5,0.5,0.9,0.9,1.2c1.5,1,1.9,3,0.9,4.4c-0.2,0.3-0.5,0.6-0.8,0.9c-0.6,0.4-1.1,1-1.3,1.7
			c-0.7,2.3-2.2,4.4-4.2,5.8c-1.8,1.4-4,2.2-6.3,2.2l-19.7-0.1c-0.5,0-1.1,0-1.6,0c-5.1-0.2-9.5-3.5-11-8.3c-0.1-0.5-0.5-0.9-1-1.2
			c-1.5-0.8-2.1-2.8-1.2-4.3c0.3-0.5,0.7-0.9,1.2-1.2c0.5-0.3,0.8-0.7,0.9-1.2c0.8-2.8,2.7-5.2,5.1-6.8c1.7-1.1,3.8-1.7,5.8-1.6
			c1.7,0,3.4,0,5.1,0c0.8,0.1,1.5-0.3,1.8-1C244.8,289.2,245.7,288.4,246.6,287.7z M247.8,310.6h5c1.7,0,3.4,0,5.2,0
			c1.5,0.1,3-0.4,4.2-1.3c2.6-2.4,3.3-4.9,2.2-8.3c-0.9-2.9-3.6-4.6-6.9-4.6c-2,0-4.1,0.1-6.1,0.1c-4.6,0-9.2-0.2-13.8-0.1
			c-2.5,0-4.8,1.4-6,3.6c-2.6,4.2,0.7,10.9,6.3,10.6C241.1,310.4,244.5,310.6,247.8,310.6z M247.4,279c0-0.6-0.8-1.5-1.2-1.2
			c-0.5,0.3-0.8,0.7-1,1.3c-0.2,0.5,0.5,1.1,1.1,1.1C246.9,280,247.4,279.6,247.4,279z"/>
		<path class="st15" d="M278.9,280.5l2.4,0.2c-0.2,0.8-0.9,1.4-1.7,1.6c0.2-0.3,0.5-0.5,0.1-0.9
			C279.4,281.1,279.1,280.8,278.9,280.5z"/>
		<path class="st21" d="M152.9,276.9l-0.7,0.2l-1.6-0.7C151.3,276.2,152.2,276.4,152.9,276.9z"/>
		<path class="st24" d="M296.1,244l0.2,0.3L296.1,244z"/>
		<path class="st2" d="M261.1,303.6c0,1.7-1.4,3.1-3.1,3.1c-1.6-0.2-2.8-1.5-2.8-3.1c0-1.7,1.3-3,3-3h0.1
			C259.9,300.6,261.2,302,261.1,303.6z"/>
		<path class="st2" d="M237.2,300.5c1.6,0,3,1.2,3,2.9v0.1c0.1,1.7-1.2,3.1-2.9,3.3c-1.7,0-3-1.3-3-3v-0.1c-0.1-1.6,1.1-3,2.7-3.1
			L237.2,300.5z"/>
	</g>
</g>
<g id="Layer_2">
</g>
</svg>
